<svg id="visual" viewBox="0 0 900 450" width="900" height="450" xmlns="http://www.w3.org/2000/svg" xmlns:xlink="http://www.w3.org/1999/xlink" version="1.1"><path d="M0 100L13.7 94.8C27.3 89.7 54.7 79.3 82 68.2C109.3 57 136.7 45 163.8 48C191 51 218 69 245.2 74.2C272.3 79.3 299.7 71.7 327 70.2C354.3 68.7 381.7 73.3 409 68.8C436.3 64.3 463.7 50.7 491 46.8C518.3 43 545.7 49 573 52C600.3 55 627.7 55 654.8 51.3C682 47.7 709 40.3 736.2 41.2C763.3 42 790.7 51 818 52.5C845.3 54 872.7 48 886.3 45L900 42L900 0L886.3 0C872.7 0 845.3 0 818 0C790.7 0 763.3 0 736.2 0C709 0 682 0 654.8 0C627.7 0 600.3 0 573 0C545.7 0 518.3 0 491 0C463.7 0 436.3 0 409 0C381.7 0 354.3 0 327 0C299.7 0 272.3 0 245.2 0C218 0 191 0 163.8 0C136.7 0 109.3 0 82 0C54.7 0 27.3 0 13.7 0L0 0Z" fill="#89a1c8"></path><path d="M0 213L13.7 207C27.3 201 54.7 189 82 173.2C109.3 157.3 136.7 137.7 163.8 136.8C191 136 218 154 245.2 151C272.3 148 299.7 124 327 118C354.3 112 381.7 124 409 132.3C436.3 140.7 463.7 145.3 491 139.3C518.3 133.3 545.7 116.7 573 112.8C600.3 109 627.7 118 654.8 122.5C682 127 709 127 736.2 132.3C763.3 137.7 790.7 148.3 818 149.2C845.3 150 872.7 141 886.3 136.5L900 132L900 40L886.3 43C872.7 46 845.3 52 818 50.5C790.7 49 763.3 40 736.2 39.2C709 38.3 682 45.7 654.8 49.3C627.7 53 600.3 53 573 50C545.7 47 518.3 41 491 44.8C463.7 48.7 436.3 62.3 409 66.8C381.7 71.3 354.3 66.7 327 68.2C299.7 69.7 272.3 77.3 245.2 72.2C218 67 191 49 163.8 46C136.7 43 109.3 55 82 66.2C54.7 77.3 27.3 87.7 13.7 92.8L0 98Z" fill="#6f8dbc"></path><path d="M0 249L13.7 242.2C27.3 235.3 54.7 221.7 82 206.7C109.3 191.7 136.7 175.3 163.8 180.7C191 186 218 213 245.2 215.2C272.3 217.3 299.7 194.7 327 185.7C354.3 176.7 381.7 181.3 409 186.7C436.3 192 463.7 198 491 194.2C518.3 190.3 545.7 176.7 573 176.7C600.3 176.7 627.7 190.3 654.8 196.3C682 202.3 709 200.7 736.2 200.7C763.3 200.7 790.7 202.3 818 200.2C845.3 198 872.7 192 886.3 189L900 186L900 130L886.3 134.5C872.7 139 845.3 148 818 147.2C790.7 146.3 763.3 135.7 736.2 130.3C709 125 682 125 654.8 120.5C627.7 116 600.3 107 573 110.8C545.7 114.7 518.3 131.3 491 137.3C463.7 143.3 436.3 138.7 409 130.3C381.7 122 354.3 110 327 116C299.7 122 272.3 146 245.2 149C218 152 191 134 163.8 134.8C136.7 135.7 109.3 155.3 82 171.2C54.7 187 27.3 199 13.7 205L0 211Z" fill="#5579b0"></path><path d="M0 357L13.7 358.5C27.3 360 54.7 363 82 347.2C109.3 331.3 136.7 296.7 163.8 295.2C191 293.7 218 325.3 245.2 333.7C272.3 342 299.7 327 327 312.7C354.3 298.3 381.7 284.7 409 280.8C436.3 277 463.7 283 491 277.8C518.3 272.7 545.7 256.3 573 269.2C600.3 282 627.7 324 654.8 341.2C682 358.3 709 350.7 736.2 344.7C763.3 338.7 790.7 334.3 818 338.2C845.3 342 872.7 354 886.3 360L900 366L900 184L886.3 187C872.7 190 845.3 196 818 198.2C790.7 200.3 763.3 198.7 736.2 198.7C709 198.7 682 200.3 654.8 194.3C627.7 188.3 600.3 174.7 573 174.7C545.7 174.7 518.3 188.3 491 192.2C463.7 196 436.3 190 409 184.7C381.7 179.3 354.3 174.7 327 183.7C299.7 192.7 272.3 215.3 245.2 213.2C218 211 191 184 163.8 178.7C136.7 173.3 109.3 189.7 82 204.7C54.7 219.7 27.3 233.3 13.7 240.2L0 247Z" fill="#496998"></path><path d="M0 451L13.7 451C27.3 451 54.7 451 82 451C109.3 451 136.7 451 163.8 451C191 451 218 451 245.2 451C272.3 451 299.7 451 327 451C354.3 451 381.7 451 409 451C436.3 451 463.7 451 491 451C518.3 451 545.7 451 573 451C600.3 451 627.7 451 654.8 451C682 451 709 451 736.2 451C763.3 451 790.7 451 818 451C845.3 451 872.7 451 886.3 451L900 451L900 364L886.3 358C872.7 352 845.3 340 818 336.2C790.7 332.3 763.3 336.7 736.2 342.7C709 348.7 682 356.3 654.8 339.2C627.7 322 600.3 280 573 267.2C545.7 254.3 518.3 270.7 491 275.8C463.7 281 436.3 275 409 278.8C381.7 282.7 354.3 296.3 327 310.7C299.7 325 272.3 340 245.2 331.7C218 323.3 191 291.7 163.8 293.2C136.7 294.7 109.3 329.3 82 345.2C54.7 361 27.3 358 13.7 356.5L0 355Z" fill="#3e5981"></path></svg>