<svg id="visual" viewBox="0 0 1920 1080" width="1920" height="1080" xmlns="http://www.w3.org/2000/svg" xmlns:xlink="http://www.w3.org/1999/xlink" version="1.1"><rect x="0" y="0" width="1920" height="1080" fill="#FAFBFE"></rect><g fill="#f0f4ff"><circle r="26" cx="980" cy="505"></circle><circle r="7" cx="604" cy="921"></circle><circle r="15" cx="798" cy="88"></circle><circle r="11" cx="1654" cy="27"></circle><circle r="16" cx="701" cy="610"></circle><circle r="9" cx="1240" cy="388"></circle><circle r="8" cx="412" cy="311"></circle><circle r="13" cx="1097" cy="851"></circle><circle r="22" cx="622" cy="517"></circle><circle r="24" cx="696" cy="279"></circle><circle r="20" cx="1891" cy="1072"></circle><circle r="8" cx="947" cy="114"></circle><circle r="24" cx="43" cy="787"></circle><circle r="8" cx="1224" cy="861"></circle><circle r="15" cx="1210" cy="721"></circle><circle r="20" cx="506" cy="660"></circle><circle r="21" cx="1266" cy="574"></circle><circle r="21" cx="508" cy="97"></circle><circle r="6" cx="1273" cy="27"></circle><circle r="14" cx="1128" cy="442"></circle><circle r="22" cx="1803" cy="921"></circle><circle r="23" cx="424" cy="877"></circle><circle r="10" cx="615" cy="789"></circle><circle r="14" cx="1699" cy="170"></circle><circle r="12" cx="1300" cy="846"></circle><circle r="12" cx="1145" cy="368"></circle><circle r="18" cx="1442" cy="808"></circle><circle r="21" cx="1621" cy="1069"></circle><circle r="16" cx="1178" cy="640"></circle><circle r="22" cx="1524" cy="232"></circle><circle r="9" cx="317" cy="999"></circle><circle r="22" cx="353" cy="101"></circle><circle r="6" cx="1470" cy="525"></circle><circle r="18" cx="180" cy="113"></circle><circle r="16" cx="1469" cy="426"></circle><circle r="24" cx="936" cy="427"></circle><circle r="23" cx="1452" cy="33"></circle><circle r="17" cx="654" cy="1047"></circle><circle r="9" cx="263" cy="594"></circle><circle r="11" cx="582" cy="8"></circle><circle r="11" cx="131" cy="641"></circle><circle r="19" cx="1153" cy="1009"></circle><circle r="17" cx="356" cy="596"></circle><circle r="23" cx="689" cy="832"></circle><circle r="7" cx="30" cy="517"></circle><circle r="9" cx="1752" cy="237"></circle><circle r="8" cx="1670" cy="1019"></circle><circle r="23" cx="1527" cy="290"></circle><circle r="23" cx="210" cy="1031"></circle><circle r="19" cx="376" cy="477"></circle><circle r="21" cx="45" cy="916"></circle><circle r="22" cx="228" cy="526"></circle><circle r="8" cx="1546" cy="13"></circle><circle r="24" cx="1533" cy="837"></circle><circle r="18" cx="1175" cy="271"></circle><circle r="13" cx="565" cy="861"></circle><circle r="24" cx="792" cy="747"></circle><circle r="20" cx="1347" cy="146"></circle><circle r="21" cx="1914" cy="661"></circle><circle r="12" cx="204" cy="714"></circle><circle r="24" cx="1356" cy="331"></circle><circle r="23" cx="30" cy="129"></circle><circle r="14" cx="130" cy="45"></circle><circle r="13" cx="536" cy="599"></circle><circle r="6" cx="1042" cy="382"></circle><circle r="16" cx="147" cy="560"></circle><circle r="12" cx="428" cy="1076"></circle><circle r="7" cx="333" cy="178"></circle><circle r="12" cx="1729" cy="924"></circle><circle r="15" cx="1033" cy="664"></circle><circle r="22" cx="1793" cy="271"></circle><circle r="11" cx="1405" cy="105"></circle><circle r="13" cx="871" cy="70"></circle><circle r="21" cx="1535" cy="717"></circle><circle r="21" cx="1336" cy="1009"></circle><circle r="16" cx="1219" cy="89"></circle><circle r="15" cx="15" cy="1036"></circle><circle r="15" cx="1850" cy="893"></circle><circle r="8" cx="1863" cy="769"></circle><circle r="17" cx="423" cy="43"></circle><circle r="24" cx="1247" cy="139"></circle><circle r="22" cx="1447" cy="1054"></circle><circle r="12" cx="958" cy="593"></circle><circle r="24" cx="78" cy="96"></circle><circle r="19" cx="29" cy="693"></circle><circle r="16" cx="485" cy="41"></circle><circle r="16" cx="1523" cy="962"></circle><circle r="9" cx="1228" cy="517"></circle><circle r="17" cx="1840" cy="315"></circle><circle r="10" cx="836" cy="598"></circle><circle r="23" cx="1096" cy="767"></circle><circle r="14" cx="1837" cy="206"></circle><circle r="14" cx="170" cy="274"></circle><circle r="16" cx="1278" cy="471"></circle><circle r="12" cx="554" cy="406"></circle><circle r="14" cx="1789" cy="565"></circle><circle r="15" cx="1256" cy="811"></circle><circle r="17" cx="599" cy="691"></circle><circle r="16" cx="694" cy="754"></circle><circle r="10" cx="1215" cy="582"></circle><circle r="23" cx="832" cy="4"></circle><circle r="23" cx="1707" cy="646"></circle><circle r="21" cx="983" cy="70"></circle><circle r="13" cx="370" cy="1060"></circle><circle r="7" cx="704" cy="13"></circle><circle r="15" cx="1427" cy="963"></circle><circle r="16" cx="916" cy="941"></circle><circle r="12" cx="1024" cy="327"></circle><circle r="10" cx="1771" cy="812"></circle><circle r="23" cx="74" cy="159"></circle><circle r="9" cx="330" cy="714"></circle><circle r="23" cx="1737" cy="499"></circle><circle r="16" cx="802" cy="425"></circle><circle r="15" cx="872" cy="843"></circle><circle r="18" cx="1323" cy="742"></circle><circle r="14" cx="320" cy="901"></circle><circle r="24" cx="1437" cy="596"></circle><circle r="15" cx="1241" cy="1077"></circle><circle r="7" cx="828" cy="696"></circle><circle r="17" cx="48" cy="19"></circle><circle r="23" cx="1717" cy="300"></circle><circle r="23" cx="1401" cy="852"></circle><circle r="22" cx="948" cy="900"></circle><circle r="11" cx="1838" cy="649"></circle><circle r="10" cx="1676" cy="237"></circle><circle r="18" cx="1017" cy="794"></circle><circle r="12" cx="581" cy="345"></circle><circle r="15" cx="1679" cy="518"></circle><circle r="21" cx="1305" cy="289"></circle><circle r="7" cx="804" cy="983"></circle><circle r="20" cx="940" cy="998"></circle><circle r="13" cx="1708" cy="89"></circle><circle r="15" cx="1784" cy="1047"></circle><circle r="11" cx="776" cy="605"></circle><circle r="23" cx="1396" cy="698"></circle><circle r="22" cx="676" cy="506"></circle><circle r="24" cx="624" cy="180"></circle><circle r="13" cx="269" cy="30"></circle><circle r="19" cx="1819" cy="710"></circle><circle r="9" cx="141" cy="787"></circle><circle r="20" cx="1766" cy="681"></circle><circle r="9" cx="101" cy="1049"></circle><circle r="17" cx="827" cy="1060"></circle><circle r="23" cx="900" cy="673"></circle><circle r="13" cx="462" cy="517"></circle><circle r="12" cx="1174" cy="1068"></circle><circle r="16" cx="681" cy="425"></circle><circle r="19" cx="789" cy="257"></circle><circle r="21" cx="1559" cy="177"></circle><circle r="15" cx="1910" cy="586"></circle><circle r="22" cx="789" cy="332"></circle><circle r="12" cx="1674" cy="931"></circle><circle r="13" cx="1711" cy="766"></circle><circle r="15" cx="567" cy="152"></circle><circle r="14" cx="1668" cy="588"></circle><circle r="20" cx="3" cy="232"></circle><circle r="20" cx="815" cy="875"></circle><circle r="19" cx="131" cy="169"></circle><circle r="13" cx="1599" cy="923"></circle><circle r="15" cx="1252" cy="316"></circle><circle r="11" cx="947" cy="313"></circle><circle r="16" cx="157" cy="1042"></circle><circle r="20" cx="1262" cy="713"></circle><circle r="6" cx="136" cy="857"></circle><circle r="14" cx="261" cy="838"></circle><circle r="8" cx="1514" cy="390"></circle><circle r="6" cx="1623" cy="823"></circle><circle r="7" cx="26" cy="380"></circle><circle r="12" cx="931" cy="208"></circle><circle r="6" cx="1564" cy="554"></circle><circle r="16" cx="1903" cy="350"></circle><circle r="10" cx="491" cy="716"></circle><circle r="19" cx="1464" cy="128"></circle><circle r="17" cx="399" cy="153"></circle><circle r="22" cx="80" cy="705"></circle><circle r="23" cx="1375" cy="610"></circle><circle r="19" cx="519" cy="769"></circle><circle r="16" cx="722" cy="702"></circle><circle r="13" cx="1576" cy="412"></circle><circle r="19" cx="654" cy="650"></circle><circle r="16" cx="984" cy="237"></circle><circle r="9" cx="606" cy="91"></circle><circle r="10" cx="1909" cy="404"></circle><circle r="15" cx="1605" cy="254"></circle><circle r="13" cx="648" cy="960"></circle><circle r="9" cx="459" cy="829"></circle><circle r="20" cx="1313" cy="645"></circle><circle r="21" cx="1330" cy="934"></circle><circle r="23" cx="865" cy="427"></circle><circle r="23" cx="1412" cy="541"></circle><circle r="9" cx="1841" cy="69"></circle><circle r="19" cx="1105" cy="206"></circle><circle r="19" cx="1807" cy="400"></circle><circle r="19" cx="1800" cy="28"></circle><circle r="17" cx="1798" cy="494"></circle><circle r="24" cx="1575" cy="618"></circle><circle r="8" cx="1024" cy="981"></circle><circle r="6" cx="1398" cy="485"></circle><circle r="14" cx="1913" cy="946"></circle><circle r="23" cx="214" cy="645"></circle><circle r="24" cx="1061" cy="454"></circle><circle r="6" cx="635" cy="316"></circle><circle r="16" cx="255" cy="170"></circle><circle r="19" cx="1044" cy="566"></circle><circle r="22" cx="867" cy="548"></circle><circle r="13" cx="599" cy="228"></circle><circle r="9" cx="458" cy="232"></circle><circle r="20" cx="487" cy="958"></circle><circle r="13" cx="1150" cy="43"></circle><circle r="14" cx="664" cy="567"></circle><circle r="21" cx="1912" cy="59"></circle><circle r="20" cx="1918" cy="755"></circle><circle r="7" cx="1391" cy="206"></circle><circle r="19" cx="1899" cy="1020"></circle><circle r="24" cx="1810" cy="980"></circle><circle r="22" cx="237" cy="238"></circle><circle r="15" cx="400" cy="403"></circle><circle r="9" cx="1498" cy="1057"></circle><circle r="9" cx="302" cy="522"></circle><circle r="24" cx="1539" cy="104"></circle><circle r="19" cx="929" cy="523"></circle><circle r="10" cx="545" cy="291"></circle><circle r="12" cx="838" cy="926"></circle><circle r="7" cx="1485" cy="344"></circle><circle r="7" cx="773" cy="2"></circle><circle r="6" cx="413" cy="936"></circle><circle r="10" cx="1032" cy="505"></circle><circle r="22" cx="883" cy="1034"></circle><circle r="10" cx="1419" cy="907"></circle><circle r="18" cx="578" cy="462"></circle><circle r="16" cx="1644" cy="871"></circle><circle r="24" cx="1043" cy="23"></circle><circle r="14" cx="653" cy="879"></circle><circle r="13" cx="358" cy="852"></circle><circle r="20" cx="1314" cy="534"></circle><circle r="22" cx="178" cy="369"></circle><circle r="12" cx="564" cy="1026"></circle><circle r="24" cx="869" cy="368"></circle><circle r="23" cx="1145" cy="710"></circle><circle r="11" cx="1776" cy="346"></circle><circle r="8" cx="897" cy="2"></circle><circle r="6" cx="1086" cy="91"></circle><circle r="15" cx="1653" cy="457"></circle><circle r="9" cx="1907" cy="807"></circle><circle r="12" cx="759" cy="788"></circle><circle r="16" cx="1393" cy="287"></circle><circle r="8" cx="268" cy="753"></circle><circle r="10" cx="1091" cy="704"></circle><circle r="9" cx="1583" cy="349"></circle><circle r="21" cx="1517" cy="501"></circle><circle r="8" cx="1810" cy="762"></circle><circle r="22" cx="45" cy="320"></circle><circle r="22" cx="376" cy="21"></circle><circle r="11" cx="387" cy="555"></circle><circle r="17" cx="1116" cy="625"></circle><circle r="9" cx="419" cy="772"></circle><circle r="19" cx="1170" cy="200"></circle><circle r="6" cx="120" cy="418"></circle><circle r="12" cx="317" cy="329"></circle><circle r="14" cx="921" cy="738"></circle><circle r="18" cx="1315" cy="417"></circle><circle r="11" cx="1723" cy="1013"></circle><circle r="11" cx="74" cy="646"></circle><circle r="21" cx="1213" cy="918"></circle><circle r="15" cx="1478" cy="266"></circle><circle r="8" cx="833" cy="469"></circle><circle r="23" cx="1601" cy="739"></circle><circle r="7" cx="428" cy="667"></circle><circle r="19" cx="1907" cy="459"></circle><circle r="11" cx="727" cy="910"></circle><circle r="7" cx="319" cy="394"></circle><circle r="14" cx="1471" cy="215"></circle><circle r="22" cx="715" cy="368"></circle><circle r="21" cx="1771" cy="166"></circle><circle r="8" cx="1102" cy="535"></circle><circle r="13" cx="1877" cy="164"></circle><circle r="20" cx="212" cy="816"></circle><circle r="15" cx="1678" cy="1077"></circle><circle r="13" cx="1177" cy="790"></circle><circle r="21" cx="1052" cy="911"></circle><circle r="9" cx="344" cy="647"></circle><circle r="23" cx="485" cy="284"></circle><circle r="13" cx="1526" cy="662"></circle><circle r="9" cx="671" cy="91"></circle><circle r="15" cx="273" cy="670"></circle><circle r="12" cx="1019" cy="717"></circle><circle r="12" cx="1404" cy="362"></circle><circle r="6" cx="1728" cy="3"></circle><circle r="11" cx="1582" cy="680"></circle><circle r="10" cx="1863" cy="546"></circle><circle r="17" cx="107" cy="989"></circle><circle r="18" cx="1488" cy="880"></circle><circle r="9" cx="480" cy="141"></circle><circle r="10" cx="1138" cy="130"></circle><circle r="19" cx="337" cy="280"></circle><circle r="9" cx="367" cy="753"></circle><circle r="12" cx="768" cy="179"></circle><circle r="8" cx="1283" cy="897"></circle><circle r="11" cx="1492" cy="768"></circle><circle r="22" cx="983" cy="854"></circle><circle r="22" cx="1474" cy="1006"></circle><circle r="18" cx="208" cy="899"></circle><circle r="16" cx="175" cy="4"></circle><circle r="17" cx="100" cy="301"></circle><circle r="11" cx="1521" cy="446"></circle><circle r="11" cx="1780" cy="618"></circle><circle r="8" cx="458" cy="587"></circle><circle r="7" cx="1601" cy="15"></circle><circle r="7" cx="1760" cy="84"></circle><circle r="18" cx="250" cy="1068"></circle><circle r="9" cx="1247" cy="1013"></circle><circle r="7" cx="1177" cy="531"></circle><circle r="6" cx="855" cy="761"></circle><circle r="14" cx="212" cy="469"></circle><circle r="22" cx="1836" cy="832"></circle><circle r="18" cx="1232" cy="242"></circle><circle r="13" cx="731" cy="528"></circle><circle r="8" cx="1079" cy="1068"></circle><circle r="15" cx="499" cy="471"></circle><circle r="12" cx="753" cy="58"></circle><circle r="15" cx="1308" cy="98"></circle><circle r="10" cx="113" cy="248"></circle><circle r="20" cx="1868" cy="2"></circle><circle r="21" cx="1591" cy="99"></circle><circle r="15" cx="1883" cy="104"></circle><circle r="17" cx="542" cy="229"></circle><circle r="22" cx="925" cy="813"></circle><circle r="12" cx="1102" cy="1"></circle><circle r="8" cx="349" cy="956"></circle><circle r="22" cx="797" cy="654"></circle><circle r="15" cx="1210" cy="970"></circle><circle r="19" cx="1044" cy="849"></circle><circle r="11" cx="1334" cy="207"></circle><circle r="13" cx="1647" cy="150"></circle><circle r="7" cx="1559" cy="778"></circle><circle r="10" cx="420" cy="1024"></circle><circle r="23" cx="219" cy="958"></circle><circle r="19" cx="1738" cy="1073"></circle><circle r="22" cx="514" cy="852"></circle><circle r="24" cx="898" cy="619"></circle><circle r="8" cx="804" cy="141"></circle><circle r="16" cx="648" cy="367"></circle><circle r="14" cx="988" cy="1025"></circle><circle r="18" cx="751" cy="461"></circle><circle r="17" cx="1663" cy="308"></circle><circle r="16" cx="997" cy="1075"></circle><circle r="17" cx="407" cy="611"></circle><circle r="10" cx="1865" cy="257"></circle><circle r="11" cx="474" cy="896"></circle><circle r="23" cx="1391" cy="760"></circle><circle r="19" cx="1623" cy="558"></circle><circle r="10" cx="1129" cy="928"></circle><circle r="14" cx="162" cy="954"></circle><circle r="11" cx="1015" cy="612"></circle><circle r="9" cx="211" cy="584"></circle><circle r="19" cx="547" cy="541"></circle><circle r="11" cx="807" cy="530"></circle><circle r="23" cx="61" cy="467"></circle><circle r="10" cx="738" cy="1077"></circle><circle r="18" cx="1027" cy="115"></circle><circle r="16" cx="1641" cy="707"></circle><circle r="21" cx="535" cy="927"></circle><circle r="18" cx="114" cy="365"></circle><circle r="16" cx="1340" cy="794"></circle><circle r="8" cx="7" cy="447"></circle><circle r="13" cx="1287" cy="236"></circle><circle r="12" cx="233" cy="115"></circle><circle r="16" cx="2" cy="818"></circle><circle r="10" cx="74" cy="862"></circle><circle r="7" cx="1695" cy="382"></circle><circle r="13" cx="150" cy="474"></circle><circle r="16" cx="653" cy="231"></circle><circle r="11" cx="706" cy="999"></circle><circle r="11" cx="989" cy="402"></circle><circle r="13" cx="1636" cy="379"></circle><circle r="7" cx="602" cy="639"></circle><circle r="13" cx="465" cy="430"></circle><circle r="9" cx="43" cy="572"></circle><circle r="8" cx="83" cy="521"></circle><circle r="19" cx="499" cy="190"></circle><circle r="8" cx="244" cy="420"></circle><circle r="19" cx="1092" cy="357"></circle><circle r="10" cx="1569" cy="1017"></circle><circle r="8" cx="1060" cy="169"></circle><circle r="12" cx="1222" cy="465"></circle><circle r="18" cx="1093" cy="984"></circle><circle r="16" cx="1709" cy="453"></circle><circle r="24" cx="21" cy="970"></circle><circle r="18" cx="1490" cy="590"></circle><circle r="8" cx="579" cy="744"></circle><circle r="9" cx="1387" cy="1075"></circle><circle r="10" cx="118" cy="926"></circle><circle r="8" cx="1509" cy="158"></circle><circle r="14" cx="396" cy="232"></circle><circle r="16" cx="1239" cy="647"></circle><circle r="17" cx="475" cy="1048"></circle><circle r="16" cx="1651" cy="92"></circle><circle r="15" cx="603" cy="575"></circle><circle r="6" cx="1192" cy="144"></circle><circle r="17" cx="753" cy="863"></circle><circle r="15" cx="971" cy="650"></circle><circle r="24" cx="893" cy="295"></circle><circle r="18" cx="151" cy="716"></circle><circle r="18" cx="1858" cy="408"></circle><circle r="20" cx="1331" cy="470"></circle><circle r="17" cx="307" cy="1070"></circle><circle r="17" cx="1918" cy="519"></circle><circle r="6" cx="304" cy="131"></circle><circle r="22" cx="1629" cy="630"></circle><circle r="9" cx="570" cy="970"></circle><circle r="12" cx="1739" cy="852"></circle><circle r="23" cx="1572" cy="469"></circle><circle r="14" cx="818" cy="193"></circle><circle r="19" cx="987" cy="149"></circle><circle r="8" cx="1159" cy="878"></circle><circle r="7" cx="857" cy="129"></circle><circle r="17" cx="635" cy="732"></circle><circle r="11" cx="647" cy="10"></circle><circle r="14" cx="1441" cy="655"></circle><circle r="16" cx="720" cy="206"></circle><circle r="7" cx="497" cy="341"></circle><circle r="15" cx="855" cy="237"></circle><circle r="11" cx="1292" cy="164"></circle><circle r="23" cx="1854" cy="473"></circle><circle r="19" cx="10" cy="58"></circle><circle r="8" cx="1307" cy="364"></circle><circle r="20" cx="1328" cy="26"></circle><circle r="8" cx="1833" cy="1075"></circle><circle r="15" cx="1349" cy="259"></circle><circle r="11" cx="60" cy="264"></circle><circle r="11" cx="1880" cy="709"></circle><circle r="6" cx="1451" cy="726"></circle><circle r="24" cx="1546" cy="910"></circle><circle r="22" cx="741" cy="128"></circle><circle r="15" cx="741" cy="649"></circle><circle r="19" cx="237" cy="315"></circle><circle r="24" cx="989" cy="933"></circle><circle r="19" cx="1306" cy="1073"></circle><circle r="17" cx="1111" cy="294"></circle><circle r="19" cx="447" cy="372"></circle><circle r="23" cx="1388" cy="1011"></circle><circle r="21" cx="1733" cy="579"></circle><circle r="12" cx="969" cy="774"></circle><circle r="18" cx="274" cy="367"></circle><circle r="15" cx="366" cy="355"></circle><circle r="8" cx="288" cy="950"></circle><circle r="12" cx="610" cy="417"></circle><circle r="11" cx="880" cy="176"></circle><circle r="10" cx="426" cy="466"></circle><circle r="12" cx="1609" cy="977"></circle><circle r="9" cx="1049" cy="248"></circle><circle r="10" cx="1375" cy="57"></circle><circle r="23" cx="1194" cy="333"></circle><circle r="17" cx="316" cy="471"></circle><circle r="23" cx="1182" cy="405"></circle><circle r="21" cx="1604" cy="202"></circle><circle r="8" cx="196" cy="177"></circle><circle r="15" cx="435" cy="106"></circle><circle r="15" cx="1609" cy="508"></circle><circle r="8" cx="57" cy="1076"></circle><circle r="8" cx="820" cy="821"></circle><circle r="18" cx="1818" cy="121"></circle><circle r="16" cx="1152" cy="584"></circle><circle r="7" cx="948" cy="32"></circle><circle r="11" cx="380" cy="688"></circle><circle r="19" cx="1212" cy="30"></circle><circle r="14" cx="155" cy="219"></circle><circle r="15" cx="859" cy="981"></circle><circle r="20" cx="919" cy="1078"></circle><circle r="21" cx="836" cy="299"></circle><circle r="14" cx="889" cy="482"></circle><circle r="18" cx="743" cy="961"></circle><circle r="13" cx="200" cy="52"></circle><circle r="19" cx="1406" cy="426"></circle><circle r="12" cx="936" cy="262"></circle><circle r="20" cx="766" cy="1024"></circle><circle r="19" cx="753" cy="295"></circle><circle r="18" cx="1919" cy="238"></circle><circle r="13" cx="681" cy="146"></circle><circle r="9" cx="90" cy="758"></circle><circle r="16" cx="1911" cy="891"></circle><circle r="18" cx="540" cy="49"></circle><circle r="16" cx="850" cy="647"></circle><circle r="14" cx="313" cy="781"></circle><circle r="10" cx="535" cy="1072"></circle><circle r="19" cx="619" cy="1007"></circle><circle r="20" cx="95" cy="591"></circle><circle r="16" cx="511" cy="1004"></circle><circle r="16" cx="1648" cy="773"></circle><circle r="10" cx="1277" cy="967"></circle><circle r="23" cx="1006" cy="452"></circle><circle r="22" cx="1750" cy="391"></circle><circle r="21" cx="23" cy="184"></circle><circle r="19" cx="171" cy="421"></circle><circle r="12" cx="319" cy="60"></circle><circle r="16" cx="1686" cy="824"></circle><circle r="19" cx="293" cy="247"></circle><circle r="22" cx="636" cy="465"></circle><circle r="21" cx="1558" cy="1069"></circle><circle r="10" cx="769" cy="382"></circle><circle r="17" cx="1588" cy="863"></circle><circle r="24" cx="373" cy="1003"></circle><circle r="17" cx="1774" cy="445"></circle><circle r="8" cx="22" cy="869"></circle><circle r="8" cx="3" cy="632"></circle><circle r="9" cx="1328" cy="584"></circle><circle r="11" cx="1375" cy="5"></circle><circle r="13" cx="1350" cy="869"></circle><circle r="19" cx="599" cy="1071"></circle><circle r="14" cx="1752" cy="733"></circle><circle r="6" cx="1702" cy="701"></circle><circle r="16" cx="266" cy="1016"></circle><circle r="19" cx="1908" cy="292"></circle><circle r="6" cx="1793" cy="868"></circle><circle r="7" cx="886" cy="896"></circle><circle r="18" cx="263" cy="890"></circle><circle r="22" cx="786" cy="922"></circle><circle r="23" cx="925" cy="368"></circle><circle r="7" cx="1843" cy="1020"></circle><circle r="19" cx="431" cy="720"></circle><circle r="9" cx="4" cy="743"></circle><circle r="17" cx="1428" cy="243"></circle><circle r="14" cx="1857" cy="947"></circle><circle r="11" cx="1759" cy="969"></circle><circle r="8" cx="1485" cy="80"></circle><circle r="20" cx="1168" cy="474"></circle><circle r="6" cx="1477" cy="932"></circle><circle r="24" cx="1343" cy="691"></circle><circle r="21" cx="1833" cy="593"></circle><circle r="15" cx="965" cy="702"></circle><circle r="6" cx="1433" cy="171"></circle><circle r="20" cx="560" cy="800"></circle><circle r="15" cx="1044" cy="1031"></circle></g></svg>