<svg id="Capa_1" data-name="Capa 1" xmlns="http://www.w3.org/2000/svg" viewBox="0 0 545 433.83"><defs><style>.cls-1,.cls-2{fill:#f2f2f2;}.cls-2{font-size:357.22px;font-family:MyriadPro-Semibold, Myriad Pro;font-weight:600;}</style></defs><title>logo_letras</title><path class="cls-1" d="M19,68.83h0a6,6,0,0,1,6,6v279a0,0,0,0,1,0,0H13a0,0,0,0,1,0,0v-279A6,6,0,0,1,19,68.83Z"/><circle class="cls-1" cx="19" cy="68.83" r="19"/><path class="cls-1" d="M768.48,544h0a3.95,3.95,0,0,1,3.95,3.95V731.5a0,0,0,0,1,0,0h-7.89a0,0,0,0,1,0,0V547.95A3.95,3.95,0,0,1,768.48,544Z" transform="translate(812.4 962.37) rotate(179.78)"/><circle class="cls-1" cx="41.84" cy="421.33" r="12.5"/><path class="cls-1" d="M61,68.83h0a6,6,0,0,1,6,6v279a0,0,0,0,1,0,0H55a0,0,0,0,1,0,0v-279A6,6,0,0,1,61,68.83Z"/><circle class="cls-1" cx="61" cy="68.83" r="19"/><path class="cls-1" d="M92.5,136.33h0a4.58,4.58,0,0,1,4.58,4.58V353.83a0,0,0,0,1,0,0H87.92a0,0,0,0,1,0,0V140.91A4.58,4.58,0,0,1,92.5,136.33Z"/><circle class="cls-1" cx="92.5" cy="136.33" r="14.5"/><text class="cls-2" transform="translate(97.05 299)">KH</text><path class="cls-1" d="M806.51,715.53h.12c.66-.71,1.75-1.78,2.58-2.54l9.42-8.55h3.24L811.09,714l12.29,13.49h-3.23l-10.91-12.09-2.73,2.48v9.61h-2.64V693.4h2.64Z" transform="translate(-727 -310.17)"/><path class="cls-1" d="M828.65,693.4h2.64v15.15h.11a9.1,9.1,0,0,1,3.65-3.32,11.33,11.33,0,0,1,5.38-1.32c2.53,0,9.28,1.09,9.28,9.67v13.9h-2.64V713.83c0-4.15-1.89-7.93-7.36-7.93a8.69,8.69,0,0,0-8.06,5.22,5.58,5.58,0,0,0-.36,2.27v14.09h-2.64Z" transform="translate(-727 -310.17)"/><path class="cls-1" d="M873,727.48l-.39-3.3h-.12A10.6,10.6,0,0,1,864,728c-5.37,0-7.86-3.27-7.86-6.34,0-5.32,5.43-8.52,16.29-8.42v-.62c0-2.28-.51-6.83-6.83-6.79a13.07,13.07,0,0,0-6.7,1.72l-.84-1.66a16,16,0,0,1,7.84-2c7.7,0,9.18,5,9.18,9.11v9a32.11,32.11,0,0,0,.39,5.47Zm-.6-12.31c-5.81-.15-13.49.61-13.49,6.14,0,3.31,2.53,4.8,5.31,4.8,4.46,0,7-2.38,7.91-4.62a3.91,3.91,0,0,0,.27-1.38Z" transform="translate(-727 -310.17)"/><path class="cls-1" d="M883.73,711.35c0-2.31-.09-4.68-.23-6.91H886l.11,4.68h.16a8.1,8.1,0,0,1,7.58-5.21,4.65,4.65,0,0,1,1.08.11v2.18a7.2,7.2,0,0,0-1.28-.07c-3.65,0-6.28,2.75-7,6.44a11.06,11.06,0,0,0-.22,2.19v12.72h-2.64Z" transform="translate(-727 -310.17)"/><path class="cls-1" d="M900.55,710c0-2.12-.09-3.7-.23-5.51h2.47l.19,4.08h.11a9.52,9.52,0,0,1,8.67-4.61,8,8,0,0,1,7.66,5h.12a9.71,9.71,0,0,1,2.72-3.12,10.05,10.05,0,0,1,6.39-1.92c2.6,0,8.71,1.27,8.71,10v13.57h-2.65V714.12c0-5.17-2.32-8.26-7-8.26a7.72,7.72,0,0,0-7,4.58,6.42,6.42,0,0,0-.46,2.28v14.76h-2.64v-14.4c0-4.16-2.31-7.22-6.62-7.22a8.1,8.1,0,0,0-7.42,5.2,6.79,6.79,0,0,0-.4,2.22v14.2h-2.64Z" transform="translate(-727 -310.17)"/><path class="cls-1" d="M960.69,727.48l-.39-3.3h-.13a10.58,10.58,0,0,1-8.51,3.83c-5.37,0-7.86-3.27-7.86-6.34,0-5.32,5.43-8.52,16.29-8.42v-.62c0-2.28-.51-6.83-6.83-6.79a13.11,13.11,0,0,0-6.71,1.72l-.83-1.66a16,16,0,0,1,7.83-2c7.71,0,9.18,5,9.18,9.11v9a33.16,33.16,0,0,0,.39,5.47Zm-.6-12.31c-5.81-.15-13.49.61-13.49,6.14,0,3.31,2.53,4.8,5.31,4.8,4.45,0,7-2.38,7.9-4.62a3.73,3.73,0,0,0,.28-1.38Z" transform="translate(-727 -310.17)"/><path class="cls-1" d="M982.43,723.9a16.54,16.54,0,0,0,8.2,2.14c5.61,0,9-2.75,9-6.73,0-3.63-2.18-5.77-7.59-7.56-6-1.85-9.66-4.53-9.66-8.93,0-4.74,4.54-8.2,10.91-8.2a16.1,16.1,0,0,1,7.47,1.52l-1,1.92a13.69,13.69,0,0,0-6.62-1.53c-6,0-8.11,3.35-8.11,5.89,0,3.59,2.4,5.42,7.77,7.24,6.19,2.16,9.48,4.58,9.48,9.43,0,4.69-3.9,8.89-11.9,8.89-3.24,0-7-.91-9-2.17Z" transform="translate(-727 -310.17)"/><path class="cls-1" d="M1032.49,715.74c0,8.61-6.83,12.27-12.78,12.27-6.92,0-12.25-4.64-12.25-11.87,0-7.89,6-12.23,12.63-12.23C1027.47,703.91,1032.49,708.68,1032.49,715.74Zm-22.36.29a9.74,9.74,0,0,0,9.76,10.08,9.91,9.91,0,0,0,9.93-10.26c0-4.21-2.76-10.05-9.79-10.05C1013.22,705.8,1010.13,711.06,1010.13,716Z" transform="translate(-727 -310.17)"/><path class="cls-1" d="M1039.28,693.4h2.64v34.08h-2.64Z" transform="translate(-727 -310.17)"/><path class="cls-1" d="M1071.64,721.85c0,2,.08,3.86.22,5.63h-2.46l-.18-4.09h-.11a10.64,10.64,0,0,1-9.17,4.62c-3.4,0-9.08-1.46-9.08-10.16V704.44h2.64v12.95c0,5,1.79,8.62,7.09,8.62a8.79,8.79,0,0,0,7.88-4.68,7.08,7.08,0,0,0,.53-2.54V704.44h2.64Z" transform="translate(-727 -310.17)"/><path class="cls-1" d="M1084.3,697.76v6.68h7.61v1.85h-7.61v15c0,2.93,1.06,4.77,3.92,4.77a10.93,10.93,0,0,0,3-.36l.32,1.76a11,11,0,0,1-3.69.55,6.18,6.18,0,0,1-4.61-1.63c-1.21-1.21-1.62-3.14-1.62-5.5V706.29h-4.51v-1.85h4.51v-5.93Z" transform="translate(-727 -310.17)"/><path class="cls-1" d="M1101.29,697.85a2,2,0,0,1-2.23,2,2,2,0,0,1-2.06-2,2.08,2.08,0,0,1,2.16-2A2,2,0,0,1,1101.29,697.85Zm-3.47,29.63v-23h2.64v23Z" transform="translate(-727 -310.17)"/><path class="cls-1" d="M1132.27,715.74c0,8.61-6.83,12.27-12.79,12.27-6.91,0-12.24-4.64-12.24-11.87,0-7.89,6-12.23,12.63-12.23C1127.25,703.91,1132.27,708.68,1132.27,715.74Zm-22.36.29a9.73,9.73,0,0,0,9.75,10.08,9.92,9.92,0,0,0,9.94-10.26c0-4.21-2.76-10.05-9.8-10.05C1113,705.8,1109.91,711.06,1109.91,716Z" transform="translate(-727 -310.17)"/><path class="cls-1" d="M1139.06,710c0-2.12-.08-3.7-.22-5.51h2.46l.19,4.16h.12c1.46-2.59,4.81-4.69,9.19-4.69,2.55,0,9.32,1.13,9.32,9.76v13.81h-2.64V713.87c0-4.2-1.88-8-7.4-8a8.47,8.47,0,0,0-8,5.31,6.69,6.69,0,0,0-.36,2.05v14.26h-2.64Z" transform="translate(-727 -310.17)"/><path class="cls-1" d="M1167.79,724.45a12.87,12.87,0,0,0,6,1.6c4.2,0,6.2-2,6.2-4.39s-1.76-3.89-5.62-5.2c-4.37-1.46-6.77-3.51-6.77-6.31,0-3.32,3-6.24,8.22-6.24a11.79,11.79,0,0,1,5.93,1.46l-1.06,1.86a9.92,9.92,0,0,0-5.29-1.39c-3.39,0-5.2,1.88-5.2,4,0,2.41,1.89,3.43,5.54,4.72,4.31,1.48,6.87,3.33,6.87,6.82,0,4-3.55,6.61-9,6.61a14.7,14.7,0,0,1-6.79-1.59Z" transform="translate(-727 -310.17)"/></svg>