<svg id="Capa_1" data-name="Capa 1" xmlns="http://www.w3.org/2000/svg" viewBox="0 0 916.09 953.91"><defs><style>.cls-1,.cls-2{fill:#333;}.cls-2{font-size:357.22px;font-family:MyriadPro-Semibold, Myriad Pro;font-weight:600;}</style></defs><title>logo_black</title><path class="cls-1" d="M1273.43,721.62c.76.29,1.69.19,1.48-.68a3,3,0,0,1,1.18-2.88c3.12-3.16,5.44-6.91,8.06-10.44a6.6,6.6,0,0,1,1.07-.9l-2.31,6.85c2.87.08,3.15.49,2.2,3.17-.58,1.63-1.19,3.23-1.78,4.85,0,.06.05.16.13.41,2.58-1.67,3.46-4.43,4.57-6.93a106.52,106.52,0,0,0,5.64-16.91c.22-.89.09-2.92,2.16-1.39.66.49,1-.44,1.29-.85a20.45,20.45,0,0,0,3.08-6.79,43.92,43.92,0,0,0,1.6-8.4l-1.9,2.87c.23-3.42,2.73-5.84,1.89-9l-1.64,1.35c-.08-.36-.22-.59-.16-.76,2.77-8.42,5.46-16.86,9.46-24.8.86-1.7.91-4,1.85-5.28,2.43-3.42,1.72-7.63,3.67-11.15,1.47-2.63,2.18-5.71,3.62-8.43a5.56,5.56,0,0,1,1.41-2.13c.29-.22.6-.42.89-.08.12.15.18.57.1.63-1.83,1.35-1,2.8-.52,4.54.86,2.82-.28,5.54-1.18,8.23-.26.76-1,2,.23,2.44a2.24,2.24,0,0,0,2.57-1.35,23.56,23.56,0,0,0,1.88-4.49c1.82-6.29,4.08-12.45,5.26-18.93a22.62,22.62,0,0,0,.27-7.65c-.55-3.07.32-5.9.13-8.85-.2-3.13.61-6.34,1-9.51a36.59,36.59,0,0,0,.68-5.65c-.1-2.56,2.15-4.08,2.4-6.47s.85-4.75,1.25-7.14c.21-1.28.36-2.57.48-3.86s-.24-2.47-1.19-2.89-1.28,1.07-2,1.77c-.54-1.69.49-3.26.07-4.86-1.12.25-.38,1.36-1.18,1.71a29.4,29.4,0,0,1-.91-7.68c-.29-10.9-.73-21.8-.66-32.7.07-10.58-2.11-20.77-4.2-31-3-14.55-5.87-29.12-8.82-43.67a12.24,12.24,0,0,0-1.42-4.36c-.07.81-.14,1.44-.22,2.29-5.25-16.82-8.53-33.93-14.83-50.18l-.52,1.38c-2.31-10.34-6.85-19.5-11.23-28.72-1.59-3.35-3.28-6.66-4.78-10.05a49.89,49.89,0,0,0-7.29-11.22c-4.4-5.42-7.81-11.6-12.42-16.9-5.83-14.59-18.6-23.7-28.1-35.39-3.13-3.86-7-7.07-10-11.38a7.8,7.8,0,0,1,3.63,2.33c4.5,4.3,9.19,8.4,13.88,12.5a28.92,28.92,0,0,0,3.87,2.37c-1.78-5.29-6.25-8.24-9.24-13.08l3.06,2.29.36-.21c-1.69-2.51-3.23-5.13-5.09-7.5-7.87-10-17.26-18.67-26-27.93a62.79,62.79,0,0,1-6.92-8c-1.76-2.66,1.25-1.84,2.15-2.32-5.64-7.69-13.73-12.77-20.73-19.06,4.6,2.51,8.56,5.89,12.59,9.18,2.54,2.08,5,4.26,7.49,6.41,1.4,1.2,3.24,1.64,4.69,2.58a15.79,15.79,0,0,0,6,2c1.33-2.91-.88-4.36-2.48-6.07a147.19,147.19,0,0,0-20.63-17.74c-12.15-8.87-24-18.21-36.36-26.73-2.63-1.8-5.21-3.67-8.41-4.44a3.15,3.15,0,0,1-2-1.16c-2.14-3.94-6.13-5.29-9.82-6.67-8.62-3.21-16.11-8.62-24.49-12.3-2.27-1-4-3.36-6.89-3.85.21,1.73.54,3.25,1.87,4.35-1.27.73-2.15,1.26-3-.61s-3.25-2.68-5.28-3.47c-.57-.22-1.24-.1-1-1.54.26-1.75-1.18-3.53-3.38-3.91-.93-.16-1.89-.24-2.82-.39-.75-.13-1.64-.14-1.86-1.09a1.13,1.13,0,0,1,.4-.88c.68-.51,1.32,0,1.94.25a8.61,8.61,0,0,0,3.55,1.25,21.36,21.36,0,0,0-5.91-3.43,56.94,56.94,0,0,0-13.14-4.35c-2.72-.53-4.75-3-7.76-3.16-2.31-.14-4.59-.8-6.94-.75-2.94.07-6.3-.3-8.49-1.45-3.3-1.74-6.73-2.38-10.12-3.8h14c-.1-1.31-1.17-1.18-1.75-1.31q-8-1.8-16-3.38c-1.14-.22-2.46-1-3.26,1-.18.43-2.36.32-3.51,0-10.06-2.54-20.41-2.38-30.64-3.37-1.49-.14-3.16-.4-4.26,1.17-.17.25-.42.5-.82.27-3.75-2.1-7.85-1-11.29.07a12.89,12.89,0,0,1-7.51.28c-1.58-.43-3,.53-4.51.7a141.31,141.31,0,0,0-17.3,3.25c-1.71.4-4.08.26-4.42,3.1-.08.65-2.15.38-2.14,0,.06-2.32-1.26-1.06-1.91-.74-2.78,1.35-5.92,1.07-8.78,2.07a16.71,16.71,0,0,0-5.18,2.76,6.09,6.09,0,0,1-5.38,1.2,4,4,0,0,0-2.27-.2c-11.36,3.93-23,7-34.08,11.77-4,1.74-8.08,3.37-12,5.39-7.19,3.76-15.12,5.9-22.16,9.92a535,535,0,0,0-45.62,29.1,747,747,0,0,0-102.08,87.2c-5.25,5.4-10,11.21-14.84,16.91-1.14,1.33-1.66,3.4-2.78,5-4.46,6.55-9.39,12.75-13.89,19.27-3.44,5-4.32,11.48-9.43,15.13.28.58.32.83.42.86,1.13.26,2.62.35,2.79,1.66s-1.42,1.28-2.27,1.76c-4.56,2.58-6.77,7.05-8.89,11.47a2.12,2.12,0,0,1-2.6,1.19c-1.16-.2-.21-1.35-.44-2.23l-6.32,11c-.39-1.28.32-1.91.61-2.61,4.43-10.71,11.28-20.19,16-30.67,3.5-7.76,8.78-14.13,13.29-21.11a6,6,0,0,0,1.34-3.68c-3.94,5.32-8.34,9.9-12.58,14.62-4.62,5.13-8.43,10.88-13,16-.46.53-.89,1.88-1.83,1-1.11-1,.45-1.5.92-2a80.52,80.52,0,0,0,11.07-14.5c1.71-2.82,4.2-5.17,6.34-7.73a32,32,0,0,0,3.11-3.81c2.87-4.8,6.8-8.67,10.84-12.4a67.75,67.75,0,0,0,8.73-10c9.62-13.21,19.59-26.16,29.63-39.06.76-1,1.82-1.85,1.86-3.23a.7.7,0,0,0-1.16.09c-2.9,4.51-8.87,5.69-11.47,10.62-.51,1-1.67,2.42-3.6,1.55-.73-.33-1.07.93-1.48,1.55-3,4.59-6,9.18-10.35,12.75-8.94,7.39-16.41,16.21-24,24.9-3.4,3.87-7,7.57-10,11.73-3.45,4.68-5.79,9.94-8.37,15.07-.82,1.61-1.81,3.08-2.73,4.62-.19.31-.11.85-1,.25s-1.43.85-1.25,1.43c1.24,3.87-2,6.23-3.09,9.27-.83,2.33-2.56,4.34-2.94,6.85-.27,1.71-2.07,2.05-2.63,3.6-1.6,4.43-3,9-6.15,12.71-1.44,1.71-.35,4.44-2.25,6.1-.54.48-.64,1.47-1.72.76-.75-.49-1.14.2-1.37.72-2.19,5-4.34,10-6.18,15.22,1.53-2.72,4-4.91,4.47-8.17a4.19,4.19,0,0,1,.11-.51c.6-1.8,2.78-2.94,2.14-5.29a.93.93,0,0,1,.92-1c.7.06.63.76.62,1.22a7.07,7.07,0,0,1-.68,3.52,35.54,35.54,0,0,0-3.69,7.84c-.44,1.54-1.39,3.56-2.46,3.74-3.36.56-3.49,3.21-4.33,5.44-2.65,7-5.23,14-7.94,21.32-.2-4.71,17.14-49.5,20.68-53.2-1,2.94-1.92,5.4-2.79,7.86,3.06-2.41,3.76-5.91,4.73-9.28a1.25,1.25,0,0,0-.08-1c-1.37-1.42-1.44-1.43-.65-3.1,8.71-18.48,17.19-37.09,27.21-54.93a30.69,30.69,0,0,0,3.44-7.74c.32-1.29,1.56-2.33.46-4.44-2,5.4-4.21,10.24-9.85,12.09-.26-3.95,2-6.95,3.56-10.12,1.24-2.58,3.35-4.75,4.75-7.33,2.48-4.54,5.05-9,7.54-13.58a3.73,3.73,0,0,0,.75-3.07c-4.88,5.62-7.68,12.28-12,17.88a.59.59,0,0,1-.37-.27,1.39,1.39,0,0,1,0-1.06,2.36,2.36,0,0,1-.79.9c-5,10.43-12,19.68-16.77,30.25l-.67-.31q3.58-8.81,7.16-17.62l-.49-.29c-1.84,2.39-3.81,4.71-5.49,7.21a54.13,54.13,0,0,1-10.25,11.49c-.91.77-2.53,1.93-2.18,3.79a.52.52,0,0,1-.17.43c-6.88,5.84-10.79,14-16.34,20.9-.75.94-1.47,1.91-2.48,3.22-.1-1.6.74-2.34,1.2-3.23,6.67-12.94,15.4-24.52,23.93-36.21,1.17-1.6-.45-1.39-.44-1.38,6.22-7.44,14-13.41,15.25-24a5,5,0,0,0-3.64,2.14c-4,4.59-7.92,9.16-11.85,13.77a43.13,43.13,0,0,1-7.57,6.45c-.79.59-2.61.61-1.5,2.47.11.19-.61,1-1.08,1.36-5,3.67-7.84,8.84-10,14.51a14.23,14.23,0,0,1-2.2,3.87c.48-2.38-1.54-5.67.63-6.89,3.71-2.1,2.84-5.38,3.76-8.23-4,4.9-9,9-12.11,14.54-3.63,6.42-8.92,11.67-12.45,18.14,10.11-19.16,24.21-35.76,35.31-54.28-3.39,1.57-4.63,4.93-6.86,7.43a155.17,155.17,0,0,0-15,20c-6.12,9.59-12.33,19.14-17.7,29.18-1.25,2.34-3,4.42-3.72,7-.14.5-.49,1.19-1,1.09-2.52-.52-3,1.57-3.85,3-8.63,13.76-14,29-19.68,44.08a7.27,7.27,0,0,1-1.75,2.9c1-3.06,1.92-6.14,3-9.15a364.34,364.34,0,0,1,26.63-58.3,519,519,0,0,1,39.9-58.7q17.13-22,34.28-44c1.3-1.66,2.31-3.54,3.85-5.94a6.61,6.61,0,0,0-4.26,3.71c-2.36,5.67-7,9.39-11.35,13.24-7.81,7-14.06,15.25-20.74,23.19-6.06,7.21-12,14.54-18,21.82a7.1,7.1,0,0,1-2.11,1.92c1.71-5.56,5.2-10.16,7.84-15.55-1.73.69-2.25,2.58-4,2.56,0-1,.83-1.58,1.38-2.29-.54.68-1.43,1.15-1.31,2.23-4.06,5-7.72,10.39-11.86,15.25-6.3,7.39-10.44,15.91-15.06,24.21a246.55,246.55,0,0,0-14.92,31.83c-.45,1.19-1.1,2.38-.63,3.75.08.23.2.57.09.72-5.27,7.23-6.22,16.11-9.13,24.23-1.74,4.84-3.42,9.75-3.57,15.05,0,2-2.38,3.12-3.17,5l-.77-.21,6.18-26.91c-1.62.81-1.75,2.18-2.14,3.29a164.32,164.32,0,0,0-5.74,22.3c-1.09,5.42-2.2,10.82-2.88,16.31-.16,1.25-.28,2.18,1.11,3,1.55,1,1.15,2.93,1.41,5,1.36-2.21.86-4.85,3-6.31-4.56,17.36-8.21,34.88-9,52.9l-.7-.05-.56-4.33a17.55,17.55,0,0,0-1.1,6.26c-.42,7.09-.28,14.24-1.24,21.24-2.44,17.87.4,35.47,2,53.14.16,1.78.66,3.62-.89,5.77-1.2-9.76-2.35-19.06-3.5-28.36-1.86,4.24-.71,8.63-1.55,12.89-.49-11.46.55-22.93,0-34.4-1,.05-.87,1-1.6,1.2-1.22-4.85-.72-9.89-1.63-14.78-1.37,2.34-1.16,4.94-1.47,7.42-.65,5.14-1.16,10.3-1.75,15.45a9.85,9.85,0,0,1-.45,2c-.17.49-.56,1-1.14.86s-.43-.67-.49-1.06a77.48,77.48,0,0,1-1-10.32,453.6,453.6,0,0,1,1.21-52.92c.88-10.94,2.24-21.84,3.33-32.77.12-1.27.94-3.3-.71-3.56-1.17-.19-1,2-1.21,3.18a96.62,96.62,0,0,0-1.36,11.6c-1.59-1.55-1.15-3.45-2-5-1.1,1.88-1.38,3.94-2,5.89-1.84,5.73-4,11.39-5.46,17.21-.73,2.87-3.43,4.54-3.68,7.52a1,1,0,0,1-1.5.93c-.92-.36-.16-1-.11-1.54.27-2.61,1.93-5,1-7.81-.37-1.06,1.55-1.15,1.08-2.66s-.29-3.08-1.84-4.06c-.5-.32-.32-.94-.33-1.44-.06-6.44-.72-12.87-.33-19.32,0-.34,0-.68-.07-1.36-1.18,1.35-1.25,2.83-1.59,4.17-2.17,8.7-4.73,17.31-6.39,26.15-.26,1.34.6,2.28.68,3.27a38.84,38.84,0,0,1-1,11.3,1.53,1.53,0,0,1-1.09,1.23c-1-2.1.36-4.46-.6-6.95-2.51,7.43-2.75,14.87-4.14,22.08a12.88,12.88,0,0,0,0,3.1c0,.58-.16,1.37.42,1.66,1,.5.48-1.29,1.38-1,.92,1.46,1.26,2.54-.84,3.73-1.18.66-1.64,2.72-1.9,4.38-.38,2.56-.78,5.13-1.25,7.68-.13.69-.18,1.84-1.3,1.48s0-1.06.05-1.61c.06-.94.3-1.87.36-2.81.42-7.15-.74-14.37,1-21.45a1.13,1.13,0,0,0,0-.75c-1.94-3.13-1.66-5.51.76-8.12,1.39-1.49,1.78-3.55,2.28-5.43,2.68-10,5.37-20,7.73-30,2-8.65,3.64-17.4,6.44-25.85,1.49-4.51,3.62-8.76,5.44-13.14,4.69-11.27,10-22.29,14.67-33.55a152,152,0,0,0,7.67-21.41,34.79,34.79,0,0,1,4.27-9.64c1.13.22,1,1.46,2,1.85,5.79-8.28,10.07-17.53,15.81-25.9-2.19.41-2.4,2.72-4,3.8.08-1.57,1.69-2.51,1.37-4.34l-4.5,5.57c-.29-2.31-1.22-4.51-.32-6.76-2,.12-2.56,1-8,8.87-2.27,3.3-3.94,7.07-7.31,10.43a12.93,12.93,0,0,1,2.67-5.71,118,118,0,0,0,6.45-10.32c.26-.48.89-1.1.41-1.61-.68-.72-.94.69-1.83.54a114.22,114.22,0,0,1,10.75-17.12c3.74-5.09,7.66-10,11.41-15.11.42-.56,2.38-1.56,0-2.47-.59-.23.16-.86.37-1.26a23.7,23.7,0,0,0,2-3.61,12.42,12.42,0,0,1,5.67-6.88c.62.51,0,1.12.14,1.67.25,1.1.8,1.32,1.57.5,4.32-4.59,8.7-9.15,12.3-14.36.15-.22.37-.44.39-.67.3-3.22,1-4.72,3.8-6.37a23.34,23.34,0,0,0,6.44-5.95c4.33-5.5,8.54-11.09,12.8-16.66.31-.4.58-.84.87-1.26-1.16-.54-1.2-1.29-.23-2,1.3-.93.66-2.59,1.54-3.7a29.72,29.72,0,0,0,2.1-3.26c.25-.42.68-1.13.52-1.34-1.85-2.56.95-3.51,1.52-5.64.69,1.55-.43,2.21-.45,3.28a1.89,1.89,0,0,0,2.35-.74,1.26,1.26,0,0,0-.15-2c-.73-.59-.3-1.06.16-1.47a39.23,39.23,0,0,1,6.28-5c.76-.43,1.69-.8,2.35.08s1.34.44,2,0a13.11,13.11,0,0,0,3.94-4.08c.83-1.3-.6-2.41-.44-3.81a155.63,155.63,0,0,0-21.44,16,3.89,3.89,0,0,1-2.7.81c-2.59.12-4.4,2.13-6.08,4a17.52,17.52,0,0,1-4.69,4.1c-.37-.88.28-1.36.48-2.18-4.12,1.42-6.59,5.27-10.85,6.83,1-1.81,3-2.59,3.42-5-1.48.92-2.78,1.29-3.47,2.53-2.72,4.9-6.81,8.77-9.9,13.4a33.67,33.67,0,0,1-5.11,5.64c-.68.64.05,1.27-.47,1.77s-.88,1.37-1.27.48c-1.33-3.07-2.34-.13-2.73.32-2.84,3.25-5.47,6.7-8.19,10.05a4.2,4.2,0,0,1-2.27,1.93c1.6-2.66,3.09-4.94,4.37-7.33,2.16-4,3.72-8.39,6.45-12.13.64-.88.47-1-.41-2.39a.76.76,0,0,1,0-.67c3.89-5.25,8.3-9.94,14.06-13.2.37-.21,1-.64,1.12-.52,2.13,1.52,2.61-.59,3.46-1.6,2-2.41,4.55-4.32,5.9-7.43.89-2.06,3.47-3.19,5.25-4.77a99,99,0,0,1,17.11-12.55A3.22,3.22,0,0,1,630,183a4.2,4.2,0,0,0,4.43-.59c3.43-2.65,7-5.06,10.64-7.39.54-.34,1.8-.73.16-1.65-.9-.5.31-1.11.7-1.41a71.4,71.4,0,0,1,9.72-6.43c6.13-3.34,12.32-6.57,18.48-9.86,4.74-2.52,8.22-6.56,12.18-10,9.15-8,19.48-14.25,30.41-19.52.61-.29,1.17-.71,1.8-1,1.62-.67,3-2.81,5.06-.28.61.76,2.31-.3,3.29-.93,5.25-3.32,11-5.86,16-9.63,10-7.65,21.28-13.29,32.15-19.58C783.07,90,792,87,800,82.44c9-5.18,18.6-8.56,28.25-12,1.15-.41,1.48-.92,1.34-2-.26-2,.71-2.82,2.74-2.65a22.21,22.21,0,0,0,6.91-.81c1.52-.35,2-1.78,3.43-2.32,7.22-2.72,14.83-3.17,22.33-4.11,13.3-1.67,26.7-2.32,40-3.42,6.84-.57,13.57-2.52,20.4-3.55a370.1,370.1,0,0,1,45.19-4.08c3-.39,6-.06,9-.18.84,0,1.72.23,2.52-.26h7.79c2.36,1,4.89.55,7.32.66,7.21.33,14.14,2.69,21.3,2.94a176.17,176.17,0,0,1,23.29,2.09,81.1,81.1,0,0,1,15.47,4.17,108.33,108.33,0,0,0,16.75,4.4,233.63,233.63,0,0,1,35.6,10.87c18.69,7.1,36.78,15.56,54.67,24.45a73.46,73.46,0,0,1,12.55,7.65c2.22,1.72,5,2.6,7.33,4.75-2.08.38-1.78,1.19-.58,2.19,1.91,1.62,3.8,3.27,5.69,4.91a10.94,10.94,0,0,1,2.23,2.76c.93,1.55,1.17,2.23-1,2.26-.85,0-.82.7-.76,1.34.13,1.44.24,2.89.37,4.41a20.26,20.26,0,0,1-6-3.25c-5.48-4.1-11.55-7.19-17.62-10.28-.94-.48-1.63-.55-2.2.31-.73,1.1.52,1.37,1,1.65,1.93,1.13,4,2.07,6,3.1,6.28,3.23,11.7,8.12,18.52,10.24,3.45,1.08,6,3.29,8.74,5.24,9.6,6.77,19.79,12.69,29,20.05A145.34,145.34,0,0,0,1243,165.3c3.25,2,5.33,5.36,8.62,7.3,1.31.77,2.5,1.92,3.94,0,.63-.86,2-.87,3.12-.37,1,.42,1.91,1.2,3.31.91-1.59-4.8-6.83-6.84-8.42-11.67,1.48.28,3,0,3.91,1.85.51,1,1.82,1.54,2.77,2.29.43.33.85.66,1.3,0,.33-.45.5-.9,0-1.36-.26-.23-.49-.49-.73-.74-12.66-13.23-26.74-24.79-41.57-35.49-5.47-4-11-7.73-16.54-11.63a11.18,11.18,0,0,1-4-4.32c2.35,1.39,4,2.45,5.79,3.42,3.14,1.75,6,4.1,9.68,4.69,5,.79,8.74,4,12.76,6.6,6.33,4.18,12.4,8.78,18.91,12.65,9.23,5.48,17.21,12.51,25.13,19.57,27,24.06,44.32,54.46,56.14,88.2,3.74,10.67,5.83,21.84,8.66,32.79a70.54,70.54,0,0,0,12.55,25.33c.3.39.52.93,1.18.84,2.79-.38,2.91-.27,3.44,3.31a13.57,13.57,0,0,0-6.22-1.27c-1.53,0-1.87.73-1.43,1.93a30.62,30.62,0,0,0,1.79,4c4.76,9,9.7,17.9,12.91,27.62a89.63,89.63,0,0,1,2.86,11c.12.58.77,1.38-.22,1.79-.76.32-1.34-.24-1.79-.74-1.65-1.89-3.23-3.84-4.9-5.71-1-1.12-1.61-1.61-3.55-.6-2.18,1.13-1,1.94-.68,2.91,1.48,4.5,3,9,3.54,13.74-3.17-5.8-4.38-12.4-7.51-18.64-.68,1.11-.84,2.6-2.35,1.29-1.06-.91-1.73-.29-1.84,1.09-.19,2.63.49,5.16.7,7.74,1.14,14.42,5,28.39,7,42.68.54,4-.47,7.95,0,11.91.9,7.29,3.13,14.32,4.5,21.52a106.71,106.71,0,0,0,3.55,15.11c2.62,7.58,2.61,15.59,4.46,23.28.52,2.14,1.79,3.7,2.61,5.54.9,0,.29-1.1,1.1-1.27.39,9.19,0,18.33-.13,27.48,0,1.77-.29,3.43,1.27,5,1,1,.94,2.85.22,4.54-1.33-1.08-.46-2.62-1-3.8-2.68,6.45-4.45,50.07-2.25,58.4,2.46-8.77,3.53-17.39,5.45-25.81,2-8.71,1-17.3,0-26,1,1.19.59,2.84,1.67,3.9,1.36-.76,1.47-2,1.59-3.38.48-5.78,1.48-11.5,1.57-17.31,0-.6,0-1.24.75-1.63,1.65,4.63,1,9.36.54,14a60.77,60.77,0,0,0,1.06,17.38,58.72,58.72,0,0,1,.65,13.71c-.27,5-1.16,9.94-1.72,15-1.92-2.84-1.61-6.22-2.54-9.22-.85,1.2-.9,1.2-1.25,3.78-2.41,17.75-6.56,35.12-11.32,52.36-2.35,8.5-4.42,17-4,26a6.14,6.14,0,0,0,2.74-3.78c2.39-7.84,4.83-15.66,7.26-23.49a5.13,5.13,0,0,1,1.43-2.87c.08,1.6-.54,2.93-.79,4.32-1.07,5.93-3.32,11.56-4,17.64-.26,2.2-2.23,4.72-2.8,7.3-.49,2.22-1.79,4.54.26,6.84.38.43-.18,1.81-.45,2.72-2,7-4,14.11-6.39,21-3.4,9.66-8.29,18.66-12.43,28a18.09,18.09,0,0,0-1.62,7c0,1.34.06,2.38,1.85,1.31,1.21-.72,2.07-.42,1.69,1.2a28.4,28.4,0,0,1-2.3,6.58c-.21.42-.48,1.07-1.13.76s-1-.83-.62-1.48c.5-.81.45-1.9-.36-1.69s-1.71-1.07-2.42.52c-4.06,8.92-9.57,17.07-13.92,25.85C1323,728.31,1322,730,1322,732c.85.21.49-.91,1.16-.83-.49,2.11-.54,2.18-2,1.14-.64-.46-.82-.32-1.11.24-.51,1-1,1.92-1.66,3,1,.11,1.32-.62,2.07-.9,0,1.54-1.2,2.42-1.84,3.54s-1.83,2.38-1.88,3.61c-.08,2-1.13,2.43-2.87,2.64l3.17-6c-3.61,3.74-5.88,8.3-8.18,12.83,1.85,1.13,0,2.67.42,3.87s1.33,1.57,2.48.42A77.1,77.1,0,0,0,1322,742.88c5.67-8.88,11.54-17.63,16.75-26.8,1.1-1.94,2.33-4.64,3.68-5.41,3.63-2.07,4-5.78,5.93-8.68,2-3.11,3.54-6.5,5.44-9.69s3.07-6.88,4.68-10.3a158.14,158.14,0,0,0,5.78-15.1c1.21-3.46,2.73-6.79,3.22-10.46.07-.55,1-1,.39-1.6s-1.11-.92-.2-1.56c.26-.19.9-.34.84-.17-.34,1,1.34,1,.77,2.16a20.73,20.73,0,0,0-1,3.58c1.94-1,2.14-2.61,2.79-3.91.4-.8.5-2.15,1.75-1.81,1.08.29.53,1.46.52,2.26,0,3.32-1.1,6.62.08,10.09l1.48-5.71c1.72,2.36,1.15,4.92,1,7.42,0,1,0,2.17,1.09,2.34.79.12,1-1,1.27-1.74,4.2-11.59,4.53-23.49,2.73-35.54-.08-.51-.06-1.21-.74-1.14a1.72,1.72,0,0,0-1.35,1.41,27.4,27.4,0,0,0-.64,6.19c-.12,2.32-.43,4.34-3.69,3.75-.33-.61,1.12-.72.65-1.41-.61-.9-1.32,0-2.17,0,.7-3.6,2.22-6.94,2.32-10.85-.77.64-1,2.25-2.26,1.25-.94-.72-.39-1.53,0-2.31.65-1.42.66-3.66,2.9-3.37s2.74,2.09,2.62,4.09a3.74,3.74,0,0,0,.24.62c1.79-2.06,1.68-4.84,3.3-7.06.71,2.57-.35,5.1,1.11,7.27.9-.88.7-2.1,1.21-3.65.88,3.83-1.15,7.8,1.9,10.52l.78-.17a28.44,28.44,0,0,1-.74-3.36c-.16-1.53-1-3.16.57-4.54.47-.39.13-1.14,0-1.72-.53-1.91-1-3.83-1.62-5.72a10.61,10.61,0,0,1,3.61-12.18c1.16,5.84,2.09,11.81,6,16.71a4.2,4.2,0,0,1,1,1.52c.94,3.87,3.12,7.4,2.72,11.63a49.4,49.4,0,0,0,.37,11.65,13.35,13.35,0,0,1-.9,7.35c-.43,1-.95,1.63-2.07,1.55s-1.5-.94-1.52-2-.11-2.19-.17-3.28c-2.24,0-1,2.34-2.4,3.19-.28-2.08.15-4.27-1.4-6.53-.79,2.91-2.25,5.16-2.48,7.89-.09,1.05,0,2.18-1.21,3a2.59,2.59,0,0,0-.88,2.07c.24,2.94-1.6,5.17-2.49,7.7-1.06,3-2.33,6-3.55,8.89-5,12-7.76,24.88-13,36.82-3.47,7.9-6.34,16-9.54,24a68.89,68.89,0,0,0-4.95,23.71c-.14,5.33-2.26,9.89-4.54,14.42-7.08,14.14-16.36,26.57-28.63,36.72-22.6,18.69-44.44,38.3-67.49,56.43C1212.3,904.34,1169,928.91,1122.58,948A608.8,608.8,0,0,1,1057,970.33a29.19,29.19,0,0,0-8.78,4.31c-6.59,4.6-14.33,6.43-21.86,8.43-9.71,2.58-18.72,7-28.29,9.88-.19.06-.32.35-.66.73,1.37.16,2.54.28,3.7.45.47.07,1.18-.06,1.26.59.11.87-.75.87-1.27.95-2.56.41-5.12.83-7.7,1.08-8.53.81-16.88,2.9-25.43,3.46-5.09.33-10.2.65-15.3.67-17.48.07-35-.11-52.44.07-5.89.07-11.12-2.15-16.63-3.49-17.69-4.3-35.45-8.41-52.89-13.62-14.71-4.4-29.22-9.53-42-18.5a11,11,0,0,0-7.53-2.23,8,8,0,0,1-3.06-.41,214.9,214.9,0,0,1-36.71-14.62C729.87,942.26,718,937,707.21,929.8c-5.68-3.76-11.13-7.87-17-11.58l2.44,3-.4.51c-4-3.21-8.41-5.87-11.72-10l3.23,1.75c.52-.44.15-.66-.08-.84-11-8.87-20.74-19.11-30.48-29.31a17.16,17.16,0,0,0-6.67-4.66c-3.58-1.3-6.41-4.05-9.13-6.71-4.58-4.47-8.58-9.45-12.8-14.23-6-6.74-11-14.16-16.84-21A72.61,72.61,0,0,1,598,821.17c-4-8.08-9.11-15.46-13.49-23.29a10.1,10.1,0,0,0-1.58-2c-9.58-9.92-17.5-21.21-26-32-4-5.11-6.41-11.44-10.05-16.87-4.75-7.11-7.92-14.9-11-22.78-.75-1.93-1.76-3.75-2.59-5.64a18.87,18.87,0,0,0-9.9-9.77,15.15,15.15,0,0,1-7.65-8.12c-3.6-8.36-5.91-17-4.79-26.2.76-6.27-1-12.18-2.14-18.18-.25-1.27-.48-2.54-.73-3.84.24,0,.42,0,.52.06,3.66,2.55,4.31,1.94,5.52-2.28,2.18-7.58,1.1-15.13.76-22.71,0-.52.07-1.36-.19-1.5-3.15-1.7-1.57-5-2.61-7.44-.52-1.22-.89-2.2-2.26-2.84-3.79-1.77-4.31-5.29-4.31-9s.94-7.37,1.45-11.05c1.32-9.52,1.71-19.12,2.58-28.68.75-8.16,1.43-16.31.76-24.56,1.26,1.8,1.12,4.33,3.33,5.76.78-4.89-1.62-9.51-.81-14.67l1.27,2.15c1.24-.11.73-1.53,1.66-1.81,1.47,1.68,1.26,4,1.55,5.84.78,5.1,1.92,10.17,2,15.39.41,20.85.93,41.7,1.4,62.55a5.3,5.3,0,0,1-.13,1.54c-.11.44.06,1.15-.68,1.2s-.84-.51-1.08-1a5.53,5.53,0,0,1-1-3.19,1.62,1.62,0,0,0-1.94-1.85c-1.34.19-.63,1.46-.46,2.23.38,1.67.13,3.78,2.61,4.22.77.13.66.92.72,1.5.79,7.5,2.22,14.73,5.57,21.67,1.75,3.6,1.57,8.07,2.75,12.06,3.18,10.74,5.44,21.77,9.63,32.21,1.16,2.9,2.06,6,5.08,7.85.63.38.52,1.67,1.17,2.4s.79,1.9,2.35,2,1.12,1.9,1.58,2.94c.29.65.41,1.35,1.21,1.5s1-.7,1.45-1.2a3.37,3.37,0,0,0,.83-2.87,39.89,39.89,0,0,0-1.91-9.37c-2.7-7-2.61-14.59-5-21.63-.84-2.47-1.29-5.12-3.47-7a2.67,2.67,0,0,1-.72-2.36c1.13.31,1.09,1.35,1.76,2.19a13,13,0,0,0-.76-6.39c-1.84-5-4-9.92-6.28-14.75-2-4.29-3.22-8.88-5.17-13.39,1.09.4,1.18,1.57,2.44,1.7a121.91,121.91,0,0,1-7.15-17.15c3.67,4.62,6.13,10,9.65,15.23,0-2.56-1.55-4.34-1.5-6.87a76,76,0,0,1,4.93,7.53c.17.26.08,2.6,1.61.64.29-.37.73,1.43,1.36,1.75,2.07-6.34-3.56-12-1.9-18.48,2.11.52,2.94,2.06,3.5,3.68,3.36,9.67,7,19.25,9.89,29.07,5.94,20.42,14.21,39.93,22.3,59.54,3.92,9.51,8.75,18.56,13,27.9a13.94,13.94,0,0,0,1.94,3c5.66,6.91,10.18,14.59,15.11,22a3.21,3.21,0,0,0,1.79,1.64c-5.25-21.23-9.64-42.38-11.35-64,1.1,1.25,9.53,41.32,10.45,48.18,2.75-2.46,4.72-.53,6.73,1.09a27.41,27.41,0,0,1,2.09,1.95,27.74,27.74,0,0,0,8.17,5.71c8.54,3.93,14.77,10.75,20.46,18a153,153,0,0,0,15.62,16.58,499.33,499.33,0,0,0,56.84,46c9.07,6.33,18.31,12.4,27.81,18.07,1.24.74,2.46,1.51,3.72,2.28-.6.81-1.13-.26-1.84.2a110.13,110.13,0,0,0,11.84,7.25,384.7,384.7,0,0,0,59.21,27.13c9.25,3.33,18.68,6,28,8.87,11,3.38,22.16,4.37,33.49,4.74-.45,1.49-1.85.18-2.57.87l-1,.16c2.08,1.55,4.63,1.4,7,2a47.1,47.1,0,0,0,7.9,1.35c2.59.21,5.17.48,7.76.64,5.34.32,10.7.6,16,.86a19.17,19.17,0,0,0,2.83-.14c1.34-.14,3.13-2.39,3.72.86,0,.13.8.17,1.23.17,4.58-.07,9.16-.11,13.74-.28a7.06,7.06,0,0,0,3.2-.9,45.44,45.44,0,0,1,21.84-5.65c12.19-.25,24.33-1.32,36.5-2,1.77-.11,3.83.2,5-1.75,1.59,1.28,3.25,0,4.86.13a8.41,8.41,0,0,0,4.94-1.09l0-.07c.52,1.3,1.62.71,2.45.66,9.29-.46,18.27-2.69,27.24-4.92a161.82,161.82,0,0,0,27.16-9.23c5.73-2.56,10.83-6.35,15.9-10.13a194.65,194.65,0,0,1-32,11.93c.22-1,1-1,1.49-1.18,10.51-4.14,20.92-8.55,31.57-12.31,11.4-4,21.83-10,32.5-15.46,8.72-4.43,16.16-11.28,25.28-15.12,8.31-3.51,15.74-8.54,23.62-12.79,2.21-1.19,4.75-1.45,7-2.73-1.68,2.26-4.34,3.53-5.76,6.16,1.33.5,2.28-.2,3.21-.68,4.34-2.23,8.11-5.41,12.78-7.12,3.08-1.13,5.07-3.85,6.92-6.46,14.18-20.06,29.8-39,44.88-58.39,14.33-18.42,26.31-38.2,35.09-59.91,3.91-9.66,7.51-19.59,13.06-28.41,3.94-6.27,5.84-13.09,8.23-19.85.17-.46.28-1,.86-1.24a6.92,6.92,0,0,1-.71,4.53c-.81,1.52.67,3.36-1.37,4.79-1.48,1.05-1.6,3.53-2.15,5.43-.4,1.36-1.2,2.7-.32,4.9,4.2-6.82,5.77-14.27,9.08-20.92a62.81,62.81,0,0,0,6.31-22.1c2.9,3.4,1.49,6.51.87,9.57-4.63,23-13.23,44.59-22.63,65.94-2.7,6.15-4.72,12.59-7,18.91a5.12,5.12,0,0,0-.09,1.25c-.57,1-.67,2.24-1.18,3.3C1272.84,723.9,1273,722.7,1273.43,721.62Z" transform="translate(-496.05 -47.05)"/><path class="cls-1" d="M982.12,47.05c-3.81.89-7.66.58-11.51.44a1.7,1.7,0,0,0,.08-.44Z" transform="translate(-496.05 -47.05)"/><path class="cls-1" d="M496.05,480.16l.73-.66c.2,1.35,1.22,2.85-.73,3.77Z" transform="translate(-496.05 -47.05)"/><path class="cls-1" d="M502.33,461.49A111.24,111.24,0,0,0,500.15,485c-1.86-.1-1.49-1.46-1.46-2.46.17-6.24,1.31-12.36,2.25-18.52,1.32-8.63,3.27-17.12,5.15-25.64.16-.72.63-1.45-.38-2.5-1.06,3.11-3.89,5-4.11,8.43-1.28-2.57-.58-4.55,1.51-5.92,1.25-.83,1.13-2.34,1.52-4.25L503,435.92c-.67-1,.55-4.14,1.5-3.85,1.51.46,1.23-.68,1.36-1.13a39.54,39.54,0,0,0,1.06-4.8c.46-2.75.41-2.77-2.61-2.31,1.45-2.69,1.93-5.51,3.46-8s1.79-5.19,2.6-7.83c.1-.29.2-.87-.19-.83-3.12.33-.84-1.44-.65-2a19.5,19.5,0,0,1,4.85-7c-2.15,6.22-4.4,11.72-5.13,17.65,2.12-4.45,3-9.32,4.68-14.33.69,1.83-.13,3.18.13,4.66a176.36,176.36,0,0,1,9.79-23.08c-8.25,27.51-14.69,55.46-20.68,83.53l-.82-.17.53-4.41a92.55,92.55,0,0,1,2.66-14.95c.58-2.49,1.06-5,1.51-6.37-1.23,5-2.81,11.08-3.74,17.3A9.15,9.15,0,0,1,502.33,461.49Z" transform="translate(-496.05 -47.05)"/><path class="cls-1" d="M968,157.23c-20.24-.65-40,1.15-59.84,1,0-.3,1.37-.9.36-2.11-.6-.71.51-.64.81-.69,6-1.07,12.23-2.77,18.23-1.75,10.45,1.77,20.94,1.2,31.39,2,1.22.1,2.58.61,3.7-.51a1.13,1.13,0,0,1,1,0,1.94,1.94,0,0,0,1.83,1.32A3.67,3.67,0,0,1,968,157.23Z" transform="translate(-496.05 -47.05)"/><path class="cls-1" d="M556,292.75c5-13.69,15.21-24.29,22-37.51a3.38,3.38,0,0,1,0,3.56c-2.13,5.26-4.47,10.42-5.37,16.11a5.38,5.38,0,0,1-3.13,4,2.86,2.86,0,0,0-1,1.13c-2.29,3.87-4.79,7.54-8.75,10a19.85,19.85,0,0,0-3.14,3Z" transform="translate(-496.05 -47.05)"/><path class="cls-1" d="M1380.05,324.94a1.17,1.17,0,0,1,1.29.82c2,5.49,6.22,9.68,8.8,14.83a29.65,29.65,0,0,1,1.54,4.36,1.77,1.77,0,0,1-.57,2.1c-.8.59-1.44.08-2-.44a22.36,22.36,0,0,1-7.17-11c-.89-3-1.18-3.28-3.86-1.93-1.49.74-2.45.41-3.14-1-.15-.31-.28-.63-.42-.94-2.55-5.55-2.51-5.62,3.62-6.49Z" transform="translate(-496.05 -47.05)"/><path class="cls-1" d="M632.33,393c-.41,5.65-1.41,10.48-4,15.14a122.73,122.73,0,0,0-7,15.83c-.68,1.77-2.17,3.35-1.83,5.48-.86-.23-1.65.28-2.42.28-1,0-.71-1.1-.54-1.63a44,44,0,0,1,2.69-7.53c1.67-3.13,1.89-6.77,3.81-9.81a2,2,0,0,0-.63-2.85c-1-.74.93-5.32,2.19-5,1.57.35,1.74-.6,2.18-1.43C628.29,398.66,629.46,395.66,632.33,393Z" transform="translate(-496.05 -47.05)"/><path class="cls-1" d="M1258.07,361.6c-9.13-12.7-18.32-25.37-26.5-39.52a20.77,20.77,0,0,1,4.31,4.28c1.15,1.4,2.17,2.9,3.27,4.35,2.93,3.84,6.71,6.94,9.4,11,.48.72.69.6,1-.22s.91.13.89.19c-.64,1.75,1.7,2.79,1,4.53-.3.83.36,1.44.69,2.08,2.18,4.28,4.4,8.54,6.61,12.8Z" transform="translate(-496.05 -47.05)"/><path class="cls-1" d="M1220.73,131.84c-.61.44-1.48.73-1.6,1.2-.88,3.67-2.51,1-3.37.25a148.72,148.72,0,0,0-17.66-13.58,7.17,7.17,0,0,0-3-1.51c-2.25-.33-3-2.06-3.7-3.84a.92.92,0,0,1,.39-1.12c.38-.33.76-.2,1.19,0a57.2,57.2,0,0,1,12.75,7.68c3.59,2.69,7.23,5.34,10.74,8.1C1217.84,130.05,1219.51,130.62,1220.73,131.84Z" transform="translate(-496.05 -47.05)"/><path class="cls-1" d="M631.68,461.83c3.53,2.07,7.21,3.68,4.76,8.37.4.19.55.34.64.3.93-.35,1.6-2,2.8-.86s.78,2.54,0,3.81A11.69,11.69,0,0,1,636,477.2c-2.38,1.53-4.93,2.87-6.61,5.51C633.39,476.11,629.79,468.67,631.68,461.83Z" transform="translate(-496.05 -47.05)"/><path class="cls-1" d="M597.87,615.68c-2.47-6.9-2.29-14.17-3.18-21.3-.91-7.37-.54-14.76-.7-22.35,3,2.07,3.44,4.79,3.32,7.85-.37,10.39.19,20.76.55,31.14C597.92,612.57,597.87,614.13,597.87,615.68Z" transform="translate(-496.05 -47.05)"/><path class="cls-1" d="M1315.5,570.35c-2-10.18.72-20.14,1.55-30.19,1,3,2.9,5.55,3.23,8.73a11.51,11.51,0,0,1,.13,4q-2.1,8.77-4.18,17.56Z" transform="translate(-496.05 -47.05)"/><path class="cls-1" d="M527.94,366.25c1.23-4.33,3.35-8.25,5.29-12.25,2.28-4.72,5.29-9.06,7.16-14,.42-1.12,1.83-2,3-2.71.81-.53.83.89,1.64,1.09s.41,1.1,0,1.69c-3.28,5.28-6.76,10.44-9.76,15.87C533.2,359.66,529.15,361.92,527.94,366.25Z" transform="translate(-496.05 -47.05)"/><path class="cls-1" d="M602.53,221.91c4.5-5.59,7.85-12.31,15.34-15,.5,2-.74,3.63-.9,5.64,2.42-1.5,4-3.85,6.54-4.9-2.69,2.7-5.38,5.41-8.09,8.1-.26.25-.66.94-1,.44-1.52-2.23-2.63-.3-3.45.49C608.52,219.06,604.91,219.45,602.53,221.91Z" transform="translate(-496.05 -47.05)"/><path class="cls-1" d="M1357.77,306.2c1,.8-1.69,2.2.69,2.61s3.28-.57,3.34-3c1.77,3.75,3.55,7.49,5.29,11.26a1.82,1.82,0,0,1-.52,2.52,1.94,1.94,0,0,1-2.36-.47c-1.78-1.49-3.6-2.94-4.61-5.14a3.2,3.2,0,0,0-1.23-1.59C1355.3,310.52,1355.13,308.69,1357.77,306.2Z" transform="translate(-496.05 -47.05)"/><path class="cls-1" d="M596.34,525.28a63.2,63.2,0,0,0-.06-10.57,10.6,10.6,0,0,1,2.22-7.28,13,13,0,0,0,2.43-6.88,2.65,2.65,0,0,1,1.31-2.31C603.31,508.15,598.09,516.36,596.34,525.28Z" transform="translate(-496.05 -47.05)"/><path class="cls-1" d="M1300.7,399.25a289.54,289.54,0,0,1,9.06,44.87C1305.48,429.41,1303.88,414.17,1300.7,399.25Z" transform="translate(-496.05 -47.05)"/><path class="cls-1" d="M605.42,546a118,118,0,0,0-.32-13.7,11.14,11.14,0,0,1-.06-1.29c.05-2.66,1.86-5.18,3.47-4.57,2.32.87,2,3.07,1.54,4.86C608.84,536.34,606.34,540.93,605.42,546Z" transform="translate(-496.05 -47.05)"/><path class="cls-1" d="M831.91,203.56c.9-1.72,2.63-2.5,3.52-4.08-1-.88-1.72.56-3.1.09,3.95-3,7.8-5.26,12.58-5.4a2,2,0,0,1,2.06,1.25c.21,1-.91,1.14-1.53,1.46C841,199.14,836.43,201.34,831.91,203.56Z" transform="translate(-496.05 -47.05)"/><path class="cls-1" d="M1236.62,315.88c6.48,7.78,10.93,15.92,15.15,24.55C1248.07,338,1238.13,322.05,1236.62,315.88Z" transform="translate(-496.05 -47.05)"/><path class="cls-1" d="M1362.1,438.14c1.28,2,1.08,4.69,1.42,7.22.08.6.24,1.19.37,1.78.74-.63,1.12-.47.87.5-1.06,4.07,0,8.09.32,12.1a77.61,77.61,0,0,1,0,10.89C1364.13,459.71,1361.62,448.94,1362.1,438.14Z" transform="translate(-496.05 -47.05)"/><path class="cls-1" d="M1327.26,589c-1.08-3.65-.09-7.24.53-10.82.58-3.3,0-7,3-9.36C1331.42,572.78,1328.88,587.33,1327.26,589Z" transform="translate(-496.05 -47.05)"/><path class="cls-1" d="M1225.89,135.58c1.34.74,2.83,1.08,2.58,3.38-.13,1.15,1.82,1.88,3,2.59a38.47,38.47,0,0,1,11.57,10.8c-6-6-13.41-10.35-20.28-15.89,2-.22,3,1.26,4.52,1.46.47-1.44-2.26-.79-1.38-2.36l-.23,0Z" transform="translate(-496.05 -47.05)"/><path class="cls-1" d="M1287.15,655.89c2.53-9.88,5.06-19.75,7.71-30.12C1295.5,629.54,1289.92,651.43,1287.15,655.89Z" transform="translate(-496.05 -47.05)"/><path class="cls-1" d="M1149,250.77c4.53,1.45,11.35,6.85,14.81,11.77C1158.7,258.79,1153.39,255.33,1149,250.77Z" transform="translate(-496.05 -47.05)"/><path class="cls-1" d="M1321.84,619.68a42.07,42.07,0,0,0,.45-6.42c-.19-2.21,1.92-3,2.46-4.71.26-.87,1.59,1.09,2.61.28a1.37,1.37,0,0,1-.66,1.73c-1.53.86-1.63,2.08-.66,3.44.34.48.42,1.29-.1,1.18-3.15-.63-2.54,2.19-3.47,3.58C1322.33,619,1322.19,619.18,1321.84,619.68Z" transform="translate(-496.05 -47.05)"/><path class="cls-1" d="M607.61,458.37c.22,3.56-1,6.51-1.73,9.53-.39,1.58-.87,3.14-1.28,4.72-.16.6-.47.91-1.09.76a.61.61,0,0,1-.54-.73C604,467.86,604.58,462.91,607.61,458.37Z" transform="translate(-496.05 -47.05)"/><path class="cls-1" d="M1301,583.67c.28-10.77.64-21.55.74-32.34A169.72,169.72,0,0,1,1301,583.67Z" transform="translate(-496.05 -47.05)"/><path class="cls-1" d="M525.57,560.64c3.44,3.39,3.64,7.65,4.58,11.64.18.77-.23,1.15-.91,1.26-.87.13-.9-.54-1-1.15C527.37,568.61,526.51,564.84,525.57,560.64Z" transform="translate(-496.05 -47.05)"/><path class="cls-1" d="M628,506.6c-1.24,3.12-2.06,6.38-4.52,9C621.85,511.66,624.14,507.22,628,506.6Z" transform="translate(-496.05 -47.05)"/><path class="cls-1" d="M1344.47,286.4c-2.9-3.41-6-6.72-6.39-11.52C1341.5,278,1343,282.22,1344.47,286.4Z" transform="translate(-496.05 -47.05)"/><path class="cls-1" d="M1377.7,654.3c-2.31-1.34-2.39-3.32-1.5-5.6a1.48,1.48,0,0,0-.36-1.69c-.73-.61-1.09-1.28,0-1.66.49-.17,1.68-.69,1.67.77,0,.36-.18,1,.58.68,1.28-.48,1.26.36.95,1.08C1378.18,650,1378.42,652.3,1377.7,654.3Z" transform="translate(-496.05 -47.05)"/><path class="cls-1" d="M1403.68,654.35c-.37-1.89-2-3-2.67-4.67-.32-.79-.84-1.5-1.15-2.29s-.5-1.58.4-2,1.51.11,2,.76A10.6,10.6,0,0,1,1403.68,654.35Z" transform="translate(-496.05 -47.05)"/><path class="cls-1" d="M866.26,197.51c3.79-2.67,7.65-5.13,12.37-5.76C874.7,194.09,871.23,197.39,866.26,197.51Z" transform="translate(-496.05 -47.05)"/><path class="cls-1" d="M1298.89,670.34c-.57,2.38-.78,4.52-1.66,6.45-1.21,0-.84-1.09-1.27-1.58-1.11.62-.51,2.4-1.93,2.81A6.43,6.43,0,0,1,1298.89,670.34Z" transform="translate(-496.05 -47.05)"/><path class="cls-1" d="M650,379.32c3-4,4.73-8.77,7.88-12.69A21.34,21.34,0,0,1,650,379.32Z" transform="translate(-496.05 -47.05)"/><path class="cls-1" d="M502.33,461.49a142.37,142.37,0,0,1,5-22.24c.22,3-.92,5.68-1.46,8.49-.92,4.79-2,9.56-3,14.33Z" transform="translate(-496.05 -47.05)"/><path class="cls-1" d="M956.78,159.17c2.44-.48,4.87-1,7.33-1.43.86-.16,2,0,2.21.89.27,1.16-1,1.21-1.76,1.38C961.94,160.64,959.32,160.79,956.78,159.17Z" transform="translate(-496.05 -47.05)"/><path class="cls-1" d="M1287.28,696.22c.56,1.17-.22,2-.07,3,1,0,.76-1.3,1.75-1.45.21,2.86-2.86,4.41-2.61,7.21-.85-1.47.53-2.67.09-4.18-.8,1.28-1.54,2.48-2.28,3.68C1284.43,701.48,1284.72,698.51,1287.28,696.22Z" transform="translate(-496.05 -47.05)"/><path class="cls-1" d="M1044.42,887.37c-5.58,1.85-11,4.06-17.05,5.22.37-1.4,1-1.49,2.26-1.66a53.9,53.9,0,0,0,7.93-2.24c2.19-.67,4.38-1.39,6.56-2.09Z" transform="translate(-496.05 -47.05)"/><path class="cls-1" d="M651.07,440.1a26,26,0,0,1,2.44-7.88c.35-.67.82-1.8,1.89-1.19.9.5.75,1.54.26,2.29C654.18,435.61,652.61,437.85,651.07,440.1Z" transform="translate(-496.05 -47.05)"/><path class="cls-1" d="M968.28,150.33H949.73C953.56,149.05,965.24,149,968.28,150.33Z" transform="translate(-496.05 -47.05)"/><path class="cls-1" d="M1293.75,428.05a42.44,42.44,0,0,1-6.53-13.28C1289.43,416.55,1292.19,423,1293.75,428.05Z" transform="translate(-496.05 -47.05)"/><path class="cls-1" d="M635.33,380.76c.78-1.68,1.57-3.35,2.31-5.05a2.06,2.06,0,0,1,2.13-1.49c.54,0,1.16.15,1.29.66.24.94-.48,1.57-1.08,2.15-1.41,1.37-2.85,2.7-4.27,4.05Z" transform="translate(-496.05 -47.05)"/><path class="cls-1" d="M1104.77,187.83a76.74,76.74,0,0,1,13.66,9.13C1113.82,194,1108.55,192.07,1104.77,187.83Z" transform="translate(-496.05 -47.05)"/><path class="cls-1" d="M1318.84,578.63c-.37-1.88.36-3.23.44-4.66.06-1,.55-1.88-.34-2.87s.33-1.49.9-2,1.23-.11,1.64.57c.51.86.31,1.26-.48,2.46a9.44,9.44,0,0,0-.8,2.67A9.86,9.86,0,0,1,1318.84,578.63Z" transform="translate(-496.05 -47.05)"/><path class="cls-1" d="M1140.81,230.11l6.26,3.55c-2.8.58-.21,1.72-.67,2.78C1144.28,234.84,1141.52,234,1140.81,230.11Z" transform="translate(-496.05 -47.05)"/><path class="cls-1" d="M1121,183.14c3.49.76,5.67,2.8,8.38,3.66A1,1,0,0,1,1130,188a.58.58,0,0,1-.84.32C1126.41,187.05,1123.1,186.6,1121,183.14Z" transform="translate(-496.05 -47.05)"/><path class="cls-1" d="M588.19,613a12,12,0,0,1-.78-11.18C588.27,605.73,587.94,609.38,588.19,613Z" transform="translate(-496.05 -47.05)"/><path class="cls-1" d="M1076.63,158.87c2.87-.25,5.55.44,8.18-.35.75-.22,1.15.38,1.27,1,.23,1.1-.72.75-1.19.76C1082.13,160.32,1079.24,161,1076.63,158.87Z" transform="translate(-496.05 -47.05)"/><path class="cls-1" d="M702,307.94c.53-1.81,1.74-2.89,1.62-4.54-.06-.72.7-1.35,1.38-1.75a1.22,1.22,0,0,1,1.45,0c.42.36,0,.79,0,1.17A7,7,0,0,1,702,307.94Z" transform="translate(-496.05 -47.05)"/><path class="cls-1" d="M1294,684.36c-1,4.27-3.34,7.51-4,11.34C1289,692.81,1290.78,687.92,1294,684.36Z" transform="translate(-496.05 -47.05)"/><path class="cls-1" d="M1295.82,620.32c.89-4.42,1-9,3-13.21q-1,6.67-2,13.34Z" transform="translate(-496.05 -47.05)"/><path class="cls-1" d="M526.79,631c2,3.13,3.79,6.32,4.51,10A23.24,23.24,0,0,1,526.79,631Z" transform="translate(-496.05 -47.05)"/><path class="cls-1" d="M1387.52,470.8a41.69,41.69,0,0,1-2.27-9.86C1387.84,463.89,1388,464.46,1387.52,470.8Z" transform="translate(-496.05 -47.05)"/><path class="cls-1" d="M1412.14,658.81c-2.64-.91-4.17-3.07-3.85-5.15.07-.42.07-.92.53-1.06.25-.08.79,0,.87.22C1410.52,654.74,1411.29,656.69,1412.14,658.81Z" transform="translate(-496.05 -47.05)"/><path class="cls-1" d="M891.45,900.06c4.14-.68,8,.85,12,1.58C899.22,903,895.55,899.71,891.45,900.06Z" transform="translate(-496.05 -47.05)"/><path class="cls-1" d="M1375.11,598c.06-1,0-2.2,1.28-2.21,1.61,0,1.77,1.53,1.95,2.56s-.67,1.75-1.78,1.76C1375,600.15,1375.27,598.87,1375.11,598Z" transform="translate(-496.05 -47.05)"/><path class="cls-1" d="M1028,138.93c3.28.57,5.86,2.49,8.87,3.15.5.11.49.65.34,1.09s-.41.53-.76.29C1033.88,141.69,1030.44,141.55,1028,138.93Z" transform="translate(-496.05 -47.05)"/><path class="cls-1" d="M1231.11,364.55c-2.84-2-3.84-5.1-4.62-8.28C1227.59,359.28,1230.52,361.26,1231.11,364.55Z" transform="translate(-496.05 -47.05)"/><path class="cls-1" d="M1038.3,144.08a7.72,7.72,0,0,1,6-.39C1042.35,147.4,1040.2,143.75,1038.3,144.08Z" transform="translate(-496.05 -47.05)"/><path class="cls-1" d="M895.24,178.5c1.69-.54,3.35-1.13,5.06-1.57.65-.17,1.68-.5,1.85.64s-.64,1.49-1.6,1.51c-1.77,0-3.55,0-5.32,0Z" transform="translate(-496.05 -47.05)"/><path class="cls-1" d="M571,668.61c-2.12-2.65-2.23-6.24-4.27-8.93C569.47,662,570.14,665.37,571,668.61Z" transform="translate(-496.05 -47.05)"/><path class="cls-1" d="M1309.28,625.12a15.1,15.1,0,0,1-2.31,8.63C1307.38,630.78,1307.68,627.78,1309.28,625.12Z" transform="translate(-496.05 -47.05)"/><path class="cls-1" d="M1059.44,170.06c-2-1.25-4.57-1.76-5.84-4.64C1056.52,166.19,1058.39,167.6,1059.44,170.06Z" transform="translate(-496.05 -47.05)"/><path class="cls-1" d="M672.79,401.32c-.9,3.06-3,4.43-4.51,6.27C669,405.2,669.46,402.67,672.79,401.32Z" transform="translate(-496.05 -47.05)"/><path class="cls-1" d="M1239.77,383.49a24.2,24.2,0,0,1,4.51,9.2A30.2,30.2,0,0,1,1239.77,383.49Z" transform="translate(-496.05 -47.05)"/><path class="cls-1" d="M660.72,418a11,11,0,0,1-3.31,6.95C658.08,422.42,658.78,419.92,660.72,418Z" transform="translate(-496.05 -47.05)"/><path class="cls-1" d="M874.59,902.29c.69-.78,1.88-.08,2.57-.87a23,23,0,0,1,8.43.87Z" transform="translate(-496.05 -47.05)"/><path class="cls-1" d="M499.33,491.13c1.23,2.81.7,5.78.89,8.69C498.81,497,499.29,494.06,499.33,491.13Z" transform="translate(-496.05 -47.05)"/><path class="cls-1" d="M537.15,624.16a20.6,20.6,0,0,1-2.73-11.33Z" transform="translate(-496.05 -47.05)"/><path class="cls-1" d="M657.56,352.64c-.91,3.33-4.26,4.86-6.33,7.34l5.71-7.8Z" transform="translate(-496.05 -47.05)"/><path class="cls-1" d="M1325.17,531.71c.23,2.76-.68,5.22-1.6,7.69A11.6,11.6,0,0,1,1325.17,531.71Z" transform="translate(-496.05 -47.05)"/><path class="cls-1" d="M1324.47,577.06a23.57,23.57,0,0,1-.71,8.73A20.61,20.61,0,0,1,1324.47,577.06Z" transform="translate(-496.05 -47.05)"/><path class="cls-1" d="M704.3,318.56c1.72-2.23,2.52-5.35,6.23-6.18A34,34,0,0,1,704.3,318.56Z" transform="translate(-496.05 -47.05)"/><path class="cls-1" d="M991.73,168.28c-3.29.75-6.45.17-9.61-.57C985.36,167.49,988.59,167.3,991.73,168.28Z" transform="translate(-496.05 -47.05)"/><path class="cls-1" d="M1372.45,501.66c1.55,2.1.31,3.67-.75,5.39C1370.66,505.05,1370.59,503.27,1372.45,501.66Z" transform="translate(-496.05 -47.05)"/><path class="cls-1" d="M1140.06,222.16c-2.73-.87-6.79-3.77-8-5.62C1135,218,1137.15,220,1140.06,222.16Z" transform="translate(-496.05 -47.05)"/><path class="cls-1" d="M653.71,408.46c-.12-.16-.2-.22-.2-.29a5,5,0,0,1,2-4.39c.3-.22.87.06.81.29C655.89,405.77,655.45,407.51,653.71,408.46Z" transform="translate(-496.05 -47.05)"/><path class="cls-1" d="M1316.78,502.14a15.88,15.88,0,0,1,2.06,8C1317.43,507.65,1317.25,504.84,1316.78,502.14Z" transform="translate(-496.05 -47.05)"/><path class="cls-1" d="M1010.12,896.6a13.7,13.7,0,0,1,7.65-2c-2.47,1-4.91,2.1-7.69,1.94Z" transform="translate(-496.05 -47.05)"/><path class="cls-1" d="M980,144.9c-2.44.45-4.67-.34-6.94-1C975.46,143.44,977.73,144.11,980,144.9Z" transform="translate(-496.05 -47.05)"/><path class="cls-1" d="M669.84,335a18.31,18.31,0,0,1-5,6C665.93,338.49,667.91,336.74,669.84,335Z" transform="translate(-496.05 -47.05)"/><path class="cls-1" d="M1347.94,684.87c-.46-2.36.29-4.1,1.1-6.42C1349.42,680.94,1349.73,682.83,1347.94,684.87Z" transform="translate(-496.05 -47.05)"/><path class="cls-1" d="M647,363.28a11.16,11.16,0,0,1,4.76-6.07Z" transform="translate(-496.05 -47.05)"/><path class="cls-1" d="M1369.17,437.78a10.78,10.78,0,0,1,.53,6.5C1368.71,442.22,1369,440,1369.17,437.78Z" transform="translate(-496.05 -47.05)"/><path class="cls-1" d="M1186.59,111.76a2.15,2.15,0,0,1-1.93-2.78c.34-.54.9-.1,1.35.11a6.53,6.53,0,0,1,3,2l-3.54-1.36C1185.59,110.71,1186.83,110.71,1186.59,111.76Z" transform="translate(-496.05 -47.05)"/><path class="cls-1" d="M1323.5,604.71a3.69,3.69,0,0,1,.71-3.35c.3-.41.41-.63.87-.28s1,.47,1.17.85-.37.8-.77.77C1324,602.58,1324.4,604.21,1323.5,604.71Z" transform="translate(-496.05 -47.05)"/><path class="cls-1" d="M588.51,620.63a10.07,10.07,0,0,1-.72-6.36A11.15,11.15,0,0,1,588.51,620.63Z" transform="translate(-496.05 -47.05)"/><path class="cls-1" d="M751.13,955.79c-1.65.29-2.81.11-3.57-1.16a.58.58,0,0,1,.41-1C749.46,953.58,750.12,954.7,751.13,955.79Z" transform="translate(-496.05 -47.05)"/><path class="cls-1" d="M530.4,603.35a9.88,9.88,0,0,1,2.5,5.35A10.6,10.6,0,0,1,530.4,603.35Z" transform="translate(-496.05 -47.05)"/><path class="cls-1" d="M1044,157.88a6,6,0,0,1-4.15-1.69C1042.09,155.2,1043,156.67,1044,157.88Z" transform="translate(-496.05 -47.05)"/><path class="cls-1" d="M1324.77,732.45a6.15,6.15,0,0,1,2.92-5.05A10.75,10.75,0,0,1,1324.77,732.45Z" transform="translate(-496.05 -47.05)"/><path class="cls-1" d="M1377,613.72c-1.32-1-1.36-2-.66-3.11.24-.36.69-.6,1.08-.17C1378.47,611.57,1377.51,612.5,1377,613.72Z" transform="translate(-496.05 -47.05)"/><path class="cls-1" d="M1300.64,585.4a11.25,11.25,0,0,1-.51,7.18C1299.68,589.71,1300.55,587.59,1300.64,585.4Z" transform="translate(-496.05 -47.05)"/><path class="cls-1" d="M548.25,555.92a2.73,2.73,0,0,1,1.16,2.85c-.09.49.71,1.52-.6,1.41-.9-.08-1-.88-.84-1.58S548.85,557.32,548.25,555.92Z" transform="translate(-496.05 -47.05)"/><path class="cls-1" d="M703.51,929.17a10.69,10.69,0,0,1,4.32,4.44l-4.75-4Z" transform="translate(-496.05 -47.05)"/><path class="cls-1" d="M893.55,176.28a5.84,5.84,0,0,1,4.94-.83C896.92,176.9,895.22,176.51,893.55,176.28Z" transform="translate(-496.05 -47.05)"/><path class="cls-1" d="M1074.13,152.2c.62,1.26,2.37,1.19,2,2.7-.11.49-.86.66-1.35.47C1073.28,154.77,1074.09,153.59,1074.13,152.2Z" transform="translate(-496.05 -47.05)"/><path class="cls-1" d="M996.81,148.21l-5.59-.6C993.45,146.2,994.91,146.89,996.81,148.21Z" transform="translate(-496.05 -47.05)"/><path class="cls-1" d="M1380.37,614.29c-.34,1.34-.3,2.61-1,3.77C1378,616.18,1378,616.09,1380.37,614.29Z" transform="translate(-496.05 -47.05)"/><path class="cls-1" d="M515,510.09a3,3,0,0,1,.15.48c0,1.35.09,2.7-.85,3.82-.06.08-.61-.08-.61-.13A7.25,7.25,0,0,1,515,510.09Z" transform="translate(-496.05 -47.05)"/><path class="cls-1" d="M677.48,314.39c.48-1.17-.13-3.33,2.46-2.91A4.33,4.33,0,0,1,677.48,314.39Z" transform="translate(-496.05 -47.05)"/><path class="cls-1" d="M962.62,177.49c1.19-.77,2.09-1.18,3.12-.67a.58.58,0,0,1,.16.89C964.91,178.68,963.89,178.3,962.62,177.49Z" transform="translate(-496.05 -47.05)"/><path class="cls-1" d="M1153.22,205.34c-2.31-.12-3.83-.43-5.17-2C1150,203.27,1151.35,204.16,1153.22,205.34Z" transform="translate(-496.05 -47.05)"/><path class="cls-1" d="M1200.76,229.91c-.6-.21-.86-.22-.89-.31-.32-1-1.51-1.61-1.31-2.82a.72.72,0,0,1,.63-.18C1200.42,227.25,1200.48,228.44,1200.76,229.91Z" transform="translate(-496.05 -47.05)"/><path class="cls-1" d="M614.69,437.36c-.73-2.68.75-3.65,1.95-4.76Z" transform="translate(-496.05 -47.05)"/><path class="cls-1" d="M1326.32,571.71V576C1324.88,572.9,1324.88,572.9,1326.32,571.71Z" transform="translate(-496.05 -47.05)"/><path class="cls-1" d="M1298.22,605.86a7.17,7.17,0,0,1,.62-4.61C1299.58,602.93,1299.58,602.93,1298.22,605.86Z" transform="translate(-496.05 -47.05)"/><path class="cls-1" d="M527.73,547.82a9.49,9.49,0,0,1,2,4.62A6.77,6.77,0,0,1,527.73,547.82Z" transform="translate(-496.05 -47.05)"/><path class="cls-1" d="M638.83,393.25c0-2,1.38-2.92,3-3.63Z" transform="translate(-496.05 -47.05)"/><path class="cls-1" d="M984,174.91a6.38,6.38,0,0,1,4,.22C986.77,176,985.57,176.24,984,174.91Z" transform="translate(-496.05 -47.05)"/><path class="cls-1" d="M641,380.79a5.83,5.83,0,0,1,2.37-3.55C643.66,379.32,641.94,379.81,641,380.79Z" transform="translate(-496.05 -47.05)"/><path class="cls-1" d="M508.75,502.77a6.25,6.25,0,0,1-.53,5.07C507.59,505.82,508.51,504.34,508.75,502.77Z" transform="translate(-496.05 -47.05)"/><path class="cls-1" d="M948.57,174.32a8.87,8.87,0,0,1,4.73.4l-4.75.43Z" transform="translate(-496.05 -47.05)"/><path class="cls-1" d="M596.06,527.08a4.32,4.32,0,0,1-.72,3.87C595.21,529.66,594.9,528.33,596.06,527.08Z" transform="translate(-496.05 -47.05)"/><path class="cls-1" d="M635.67,331.19a6.84,6.84,0,0,1-1.71,4A4.79,4.79,0,0,1,635.67,331.19Z" transform="translate(-496.05 -47.05)"/><path class="cls-1" d="M528.47,559.84a3.23,3.23,0,0,1,.67,3.64C527.74,562.42,528.17,561.1,528.47,559.84Z" transform="translate(-496.05 -47.05)"/><path class="cls-1" d="M679.5,333.92a4.51,4.51,0,0,1-2.79,3.29A5.34,5.34,0,0,1,679.5,333.92Z" transform="translate(-496.05 -47.05)"/><path class="cls-1" d="M558.49,318.48a6,6,0,0,1-1.7,4.2A6,6,0,0,1,558.49,318.48Z" transform="translate(-496.05 -47.05)"/><path class="cls-1" d="M618.92,513.83a10.76,10.76,0,0,1-1.29,5.18A7.69,7.69,0,0,1,618.92,513.83Z" transform="translate(-496.05 -47.05)"/><path class="cls-1" d="M690.32,294.69c.1-1.46,1-2.43,2.54-3.62A6,6,0,0,1,690.32,294.69Z" transform="translate(-496.05 -47.05)"/><path class="cls-1" d="M625.22,459.37a9.1,9.1,0,0,1,1.7-5.55A12.27,12.27,0,0,1,625.22,459.37Z" transform="translate(-496.05 -47.05)"/><path class="cls-1" d="M879.22,185.09a5.41,5.41,0,0,1,4.46-1C882,185,880.86,185.48,879.22,185.09Z" transform="translate(-496.05 -47.05)"/><path class="cls-1" d="M1371,481.7c-1-1.7-1.14-2.77-.74-4.06C1371.54,478.63,1371.05,479.85,1371,481.7Z" transform="translate(-496.05 -47.05)"/><path class="cls-1" d="M929,160.56c1.35-.2,2.63-1.18,4.31-.65A5.14,5.14,0,0,1,929,160.56Z" transform="translate(-496.05 -47.05)"/><path class="cls-1" d="M1385.31,571a18.73,18.73,0,0,1,.57-5.31C1386.35,567.77,1386.47,569.32,1385.31,571Z" transform="translate(-496.05 -47.05)"/><path class="cls-1" d="M498.27,468.3c-.55.09-.76-.11-.78-.5a1.79,1.79,0,0,1,.9-1.67c.22-.13.65.07.64.54A2,2,0,0,1,498.27,468.3Z" transform="translate(-496.05 -47.05)"/><path class="cls-1" d="M1390.2,512.92a2.88,2.88,0,0,1-.76-3.27C1390.79,510.56,1390.21,511.67,1390.2,512.92Z" transform="translate(-496.05 -47.05)"/><path class="cls-1" d="M500.09,432.62a5.62,5.62,0,0,1,1.05-3.83A4.67,4.67,0,0,1,500.09,432.62Z" transform="translate(-496.05 -47.05)"/><path class="cls-1" d="M1157.62,202.81a5.89,5.89,0,0,1-3.37-2.07C1156.09,200.59,1156.86,201.73,1157.62,202.81Z" transform="translate(-496.05 -47.05)"/><path class="cls-1" d="M889.86,182.15c1.14-.7,1.89-.91,2.69-.38a.68.68,0,0,1,.1.64C891.84,183.09,891.07,182.61,889.86,182.15Z" transform="translate(-496.05 -47.05)"/><path class="cls-1" d="M502.69,431.08a4.22,4.22,0,0,1-1.31,3.92A7.85,7.85,0,0,1,502.69,431.08Z" transform="translate(-496.05 -47.05)"/><path class="cls-1" d="M1247.79,165.8a5.75,5.75,0,0,1-3.4-2.1A4.9,4.9,0,0,1,1247.79,165.8Z" transform="translate(-496.05 -47.05)"/><path class="cls-1" d="M588.65,624.6c1.06,1.15,1.07,2.36.62,4.12C589,627.09,588.37,626,588.65,624.6Z" transform="translate(-496.05 -47.05)"/><path class="cls-1" d="M908.24,51.71a2.42,2.42,0,0,1,2.55-.31C909.91,52.66,909.07,52.12,908.24,51.71Z" transform="translate(-496.05 -47.05)"/><path class="cls-1" d="M1294.43,641.74a6.79,6.79,0,0,1,1.13-3.83A4.59,4.59,0,0,1,1294.43,641.74Z" transform="translate(-496.05 -47.05)"/><path class="cls-1" d="M1225.89,135.56c-1.82.49-2.15-1.15-3.5-2.24,1.9.32,2.23,2,3.5,2.26Z" transform="translate(-496.05 -47.05)"/><path class="cls-1" d="M656.16,417.81a2.44,2.44,0,0,1,1.41-2.56c.09,0,.37.12.39.21C658.17,416.85,656.75,417,656.16,417.81Z" transform="translate(-496.05 -47.05)"/><path class="cls-1" d="M1369.69,650.46a4.79,4.79,0,0,1,2.12-4.06C1371.57,648.12,1370.86,649,1369.69,650.46Z" transform="translate(-496.05 -47.05)"/><path class="cls-1" d="M535.46,609.24c.88-.58,1.33-1.36,2.27-1.19.15,0,.38.53.31.61A2,2,0,0,1,535.46,609.24Z" transform="translate(-496.05 -47.05)"/><path class="cls-1" d="M1023.05,71a22.91,22.91,0,0,1,6.35,2c-.18.53.74,1.7-1,1.23-4-1.1-8.09-2.06-12.25-3.51,1.68-.82,3,.14,4.34.31C1021.35,71.1,1022.18,71.92,1023.05,71Z" transform="translate(-496.05 -47.05)"/><path class="cls-1" d="M987.91,73.77A20.32,20.32,0,0,1,995.78,75C993,75.71,990.49,74.44,987.91,73.77Z" transform="translate(-496.05 -47.05)"/><path class="cls-1" d="M1222.13,248.53c-1.32-.09-1.49-1.49-2.57-1.13-.48.16-1,0-1-.44a2.35,2.35,0,0,1,.79-1.23c.45-.43.76,0,1,.35C1221,246.81,1221.46,247.58,1222.13,248.53Z" transform="translate(-496.05 -47.05)"/><path class="cls-1" d="M573.77,346.92a7.69,7.69,0,0,1-1.88,5.26C572.17,350,572.57,348.31,573.77,346.92Z" transform="translate(-496.05 -47.05)"/><path class="cls-1" d="M675.07,301.83" transform="translate(-496.05 -47.05)"/><path class="cls-1" d="M677.33,297.61" transform="translate(-496.05 -47.05)"/><path class="cls-1" d="M1099.22,82.12a4.38,4.38,0,0,1-2.52-.64l-1-1.1c1.73-.09,3,.77,4.32,1.37.32.15.48.51-.1.57C1099.7,82.35,1099.46,82.19,1099.22,82.12Z" transform="translate(-496.05 -47.05)"/><path class="cls-1" d="M639.09,364.72c-.75-1.68,1-2,1.08-3.15C640.89,363,640.34,363.9,639.09,364.72Z" transform="translate(-496.05 -47.05)"/><path class="cls-1" d="M1389.52,623.74a5.12,5.12,0,0,1,.51-4.28C1390.67,621,1390,622,1389.52,623.74Z" transform="translate(-496.05 -47.05)"/><path class="cls-1" d="M1315.91,661.53c-1.39.32-.43,1.83-1.71,2-1.32-3.21,2-3.17,2.88-4.21,1.46,6.43-2.25,11.95-5,17.77Z" transform="translate(-496.05 -47.05)"/><path class="cls-1" d="M1348.5,588.92c.29,5.34.69,10.68-.27,16A53.71,53.71,0,0,1,1348.5,588.92Z" transform="translate(-496.05 -47.05)"/><path class="cls-1" d="M1340.4,618.61l.54-6.15c0-.45.2-.92.7-.92s.68.46.78.88C1343,614.77,1341.47,616.58,1340.4,618.61Z" transform="translate(-496.05 -47.05)"/><path class="cls-1" d="M1326.39,657a15.8,15.8,0,0,0-.81,2.93c-.11,1.17-1,.8-1.4.71-.75-.18-.25-.78,0-1.15.55-.95,1.16-1.86,1.75-2.79Z" transform="translate(-496.05 -47.05)"/><path class="cls-1" d="M1327.71,649.72a12.3,12.3,0,0,1,1.13-5.86C1329.25,646.33,1328.28,648,1327.71,649.72Z" transform="translate(-496.05 -47.05)"/><path class="cls-1" d="M1087.09,78.92l-15.94-4.5C1073.52,73.84,1084.32,76.61,1087.09,78.92Z" transform="translate(-496.05 -47.05)"/><path class="cls-1" d="M598.94,257.86l-3.24,1.82C596.63,258.29,597.26,257.26,598.94,257.86Z" transform="translate(-496.05 -47.05)"/><path class="cls-1" d="M250,332h0a6,6,0,0,1,6,6V617a0,0,0,0,1,0,0H244a0,0,0,0,1,0,0V338A6,6,0,0,1,250,332Z"/><circle class="cls-1" cx="249.95" cy="331.95" r="19"/><path class="cls-1" d="M768.48,544h0a3.95,3.95,0,0,1,3.95,3.95V731.5a0,0,0,0,1,0,0h-7.89a0,0,0,0,1,0,0V547.95A3.95,3.95,0,0,1,768.48,544Z" transform="translate(1043.35 1225.49) rotate(179.78)"/><circle class="cls-1" cx="272.79" cy="684.45" r="12.5"/><path class="cls-1" d="M292,332h0a6,6,0,0,1,6,6V617a0,0,0,0,1,0,0H286a0,0,0,0,1,0,0V338A6,6,0,0,1,292,332Z"/><circle class="cls-1" cx="291.95" cy="331.95" r="19"/><path class="cls-1" d="M323.45,399.45h0A4.58,4.58,0,0,1,328,404V617a0,0,0,0,1,0,0h-9.16a0,0,0,0,1,0,0V404A4.58,4.58,0,0,1,323.45,399.45Z"/><circle class="cls-1" cx="323.45" cy="399.45" r="14.5"/><text class="cls-2" transform="translate(328 562.12)">KH</text><path class="cls-1" d="M806.51,715.53h.12c.66-.71,1.75-1.78,2.58-2.54l9.42-8.55h3.24L811.09,714l12.29,13.49h-3.23l-10.91-12.09-2.73,2.48v9.61h-2.64V693.4h2.64Z" transform="translate(-496.05 -47.05)"/><path class="cls-1" d="M828.65,693.4h2.64v15.15h.11a9.1,9.1,0,0,1,3.65-3.32,11.33,11.33,0,0,1,5.38-1.32c2.53,0,9.28,1.09,9.28,9.67v13.9h-2.64V713.83c0-4.15-1.89-7.93-7.36-7.93a8.69,8.69,0,0,0-8.06,5.22,5.58,5.58,0,0,0-.36,2.27v14.09h-2.64Z" transform="translate(-496.05 -47.05)"/><path class="cls-1" d="M873,727.48l-.39-3.3h-.12A10.6,10.6,0,0,1,864,728c-5.37,0-7.86-3.27-7.86-6.34,0-5.32,5.43-8.52,16.29-8.42v-.62c0-2.28-.51-6.83-6.83-6.79a13.07,13.07,0,0,0-6.7,1.72l-.84-1.66a16,16,0,0,1,7.84-2c7.7,0,9.18,5,9.18,9.11v9a32.11,32.11,0,0,0,.39,5.47Zm-.6-12.31c-5.81-.15-13.49.61-13.49,6.14,0,3.31,2.53,4.8,5.31,4.8,4.46,0,7-2.38,7.91-4.62a3.91,3.91,0,0,0,.27-1.38Z" transform="translate(-496.05 -47.05)"/><path class="cls-1" d="M883.73,711.35c0-2.31-.09-4.68-.23-6.91H886l.11,4.68h.16a8.1,8.1,0,0,1,7.58-5.21,4.65,4.65,0,0,1,1.08.11v2.18a7.2,7.2,0,0,0-1.28-.07c-3.65,0-6.28,2.75-7,6.44a11.06,11.06,0,0,0-.22,2.19v12.72h-2.64Z" transform="translate(-496.05 -47.05)"/><path class="cls-1" d="M900.55,710c0-2.12-.09-3.7-.23-5.51h2.47l.19,4.08h.11a9.52,9.52,0,0,1,8.67-4.61,8,8,0,0,1,7.66,5h.12a9.71,9.71,0,0,1,2.72-3.12,10.05,10.05,0,0,1,6.39-1.92c2.6,0,8.71,1.27,8.71,10v13.57h-2.65V714.12c0-5.17-2.32-8.26-7-8.26a7.72,7.72,0,0,0-7,4.58,6.42,6.42,0,0,0-.46,2.28v14.76h-2.64v-14.4c0-4.16-2.31-7.22-6.62-7.22a8.1,8.1,0,0,0-7.42,5.2,6.79,6.79,0,0,0-.4,2.22v14.2h-2.64Z" transform="translate(-496.05 -47.05)"/><path class="cls-1" d="M960.69,727.48l-.39-3.3h-.13a10.58,10.58,0,0,1-8.51,3.83c-5.37,0-7.86-3.27-7.86-6.34,0-5.32,5.43-8.52,16.29-8.42v-.62c0-2.28-.51-6.83-6.83-6.79a13.11,13.11,0,0,0-6.71,1.72l-.83-1.66a16,16,0,0,1,7.83-2c7.71,0,9.18,5,9.18,9.11v9a33.16,33.16,0,0,0,.39,5.47Zm-.6-12.31c-5.81-.15-13.49.61-13.49,6.14,0,3.31,2.53,4.8,5.31,4.8,4.45,0,7-2.38,7.9-4.62a3.73,3.73,0,0,0,.28-1.38Z" transform="translate(-496.05 -47.05)"/><path class="cls-1" d="M982.43,723.9a16.54,16.54,0,0,0,8.2,2.14c5.61,0,9-2.75,9-6.73,0-3.63-2.18-5.77-7.59-7.56-6-1.85-9.66-4.53-9.66-8.93,0-4.74,4.54-8.2,10.91-8.2a16.1,16.1,0,0,1,7.47,1.52l-1,1.92a13.69,13.69,0,0,0-6.62-1.53c-6,0-8.11,3.35-8.11,5.89,0,3.59,2.4,5.42,7.77,7.24,6.19,2.16,9.48,4.58,9.48,9.43,0,4.69-3.9,8.89-11.9,8.89-3.24,0-7-.91-9-2.17Z" transform="translate(-496.05 -47.05)"/><path class="cls-1" d="M1032.49,715.74c0,8.61-6.83,12.27-12.78,12.27-6.92,0-12.25-4.64-12.25-11.87,0-7.89,6-12.23,12.63-12.23C1027.47,703.91,1032.49,708.68,1032.49,715.74Zm-22.36.29a9.74,9.74,0,0,0,9.76,10.08,9.91,9.91,0,0,0,9.93-10.26c0-4.21-2.76-10.05-9.79-10.05C1013.22,705.8,1010.13,711.06,1010.13,716Z" transform="translate(-496.05 -47.05)"/><path class="cls-1" d="M1039.28,693.4h2.64v34.08h-2.64Z" transform="translate(-496.05 -47.05)"/><path class="cls-1" d="M1071.64,721.85c0,2,.08,3.86.22,5.63h-2.46l-.18-4.09h-.11a10.64,10.64,0,0,1-9.17,4.62c-3.4,0-9.08-1.46-9.08-10.16V704.44h2.64v12.95c0,5,1.79,8.62,7.09,8.62a8.79,8.79,0,0,0,7.88-4.68,7.08,7.08,0,0,0,.53-2.54V704.44h2.64Z" transform="translate(-496.05 -47.05)"/><path class="cls-1" d="M1084.3,697.76v6.68h7.61v1.85h-7.61v15c0,2.93,1.06,4.77,3.92,4.77a10.93,10.93,0,0,0,3-.36l.32,1.76a11,11,0,0,1-3.69.55,6.18,6.18,0,0,1-4.61-1.63c-1.21-1.21-1.62-3.14-1.62-5.5V706.29h-4.51v-1.85h4.51v-5.93Z" transform="translate(-496.05 -47.05)"/><path class="cls-1" d="M1101.29,697.85a2,2,0,0,1-2.23,2,2,2,0,0,1-2.06-2,2.08,2.08,0,0,1,2.16-2A2,2,0,0,1,1101.29,697.85Zm-3.47,29.63v-23h2.64v23Z" transform="translate(-496.05 -47.05)"/><path class="cls-1" d="M1132.27,715.74c0,8.61-6.83,12.27-12.79,12.27-6.91,0-12.24-4.64-12.24-11.87,0-7.89,6-12.23,12.63-12.23C1127.25,703.91,1132.27,708.68,1132.27,715.74Zm-22.36.29a9.73,9.73,0,0,0,9.75,10.08,9.92,9.92,0,0,0,9.94-10.26c0-4.21-2.76-10.05-9.8-10.05C1113,705.8,1109.91,711.06,1109.91,716Z" transform="translate(-496.05 -47.05)"/><path class="cls-1" d="M1139.06,710c0-2.12-.08-3.7-.22-5.51h2.46l.19,4.16h.12c1.46-2.59,4.81-4.69,9.19-4.69,2.55,0,9.32,1.13,9.32,9.76v13.81h-2.64V713.87c0-4.2-1.88-8-7.4-8a8.47,8.47,0,0,0-8,5.31,6.69,6.69,0,0,0-.36,2.05v14.26h-2.64Z" transform="translate(-496.05 -47.05)"/><path class="cls-1" d="M1167.79,724.45a12.87,12.87,0,0,0,6,1.6c4.2,0,6.2-2,6.2-4.39s-1.76-3.89-5.62-5.2c-4.37-1.46-6.77-3.51-6.77-6.31,0-3.32,3-6.24,8.22-6.24a11.79,11.79,0,0,1,5.93,1.46l-1.06,1.86a9.92,9.92,0,0,0-5.29-1.39c-3.39,0-5.2,1.88-5.2,4,0,2.41,1.89,3.43,5.54,4.72,4.31,1.48,6.87,3.33,6.87,6.82,0,4-3.55,6.61-9,6.61a14.7,14.7,0,0,1-6.79-1.59Z" transform="translate(-496.05 -47.05)"/></svg>